<svg width="52" height="52" viewBox="0 0 52 52" fill="none" xmlns="http://www.w3.org/2000/svg">
<path d="M42.2324 34.1265L43.2178 32.1345L39.9948 28.9114L38.002 29.8967C37.2723 29.4901 36.5015 29.1706 35.7005 28.9425L34.9891 26.8379H30.4303L29.7189 28.9425C28.9179 29.1706 28.1472 29.4901 27.4174 29.8967L25.4246 28.9114L22.2017 32.1345L23.187 34.1265C23.0727 34.3312 22.9679 34.5393 22.8676 34.7506L18.4516 33.2787V32.2712C19.541 31.541 20.4235 30.5311 21.0124 29.3492C22.8414 29.325 24.3226 27.8335 24.3226 25.9991V21.6515C25.2965 21.3042 26 20.3815 26 19.2893C26 18.1462 25.2293 17.19 24.1842 16.8848C23.5064 12.9131 20.3129 9.83953 16.2947 9.31778C15.8683 8.75466 15.2 8.38567 14.442 8.38567H14.0742C13.3162 8.38567 12.6478 8.75466 12.2215 9.31778C8.2061 9.83953 5.01056 12.9152 4.33197 16.8848C3.28686 17.19 2.51613 18.1462 2.51613 19.2893C2.51613 20.3815 3.2197 21.3042 4.19355 21.6515V25.9991C4.19355 27.8142 5.64451 29.2882 7.5013 29.3443C8.0902 30.5287 8.97355 31.5398 10.0645 32.2721V33.2795L3.32618 35.5259C1.3371 36.1881 0 38.0429 0 40.1406V48.6451H26.8629C27.3654 48.8945 28.7226 49.551 29.714 49.8806L30.4303 52H34.9891L35.7005 49.8958C36.5015 49.6677 37.2723 49.3482 38.002 48.9411L39.9948 49.9269L43.2178 46.7034L42.2324 44.7114C42.6375 43.9816 42.9581 43.2109 43.187 42.411L45.2904 41.698V37.1394L43.1862 36.4273C42.9581 35.627 42.6375 34.8563 42.2324 34.1265ZM27.3687 37.0219C28.3081 34.9312 30.3873 33.5478 32.7097 33.5478C35.9462 33.5478 38.5807 36.1815 38.5807 39.4189C38.5807 42.6568 35.9462 45.2901 32.7097 45.2901C31.1261 45.2901 29.6182 44.6426 28.5162 43.5164V40.1406C28.5162 38.966 28.0857 37.8774 27.3687 37.0219ZM26.8387 40.1406V46.9676H23.4839V41.5883L23.2382 41.3421C22.3147 40.419 21.8065 39.1908 21.8065 37.8852V36.1656L24.6588 37.1169C25.9632 37.551 26.8387 38.7665 26.8387 40.1406ZM6.70968 45.2901H21.8065V46.9676H6.70968V45.2901ZM20.1291 35.6061V37.8852C20.1291 39.5189 20.722 41.062 21.8065 42.2689V43.6126H6.70968V42.2689C7.79411 41.0628 8.38711 39.5197 8.38711 37.8852V35.6061L10.1292 35.0258C10.4392 37.0338 12.1646 38.5802 14.2581 38.5802C16.3516 38.5802 18.0769 37.0338 18.3869 35.0258L20.1291 35.6061ZM22.6452 21.8055V23.1107C22.3851 22.9587 22.105 22.8408 21.8065 22.7634V21.8055H22.6452ZM21.6504 27.5284C21.7528 27.0345 21.8065 26.5225 21.8065 25.9991V24.5551C22.3057 24.8459 22.6452 25.3812 22.6452 25.9991C22.6452 26.681 22.2353 27.2659 21.6504 27.5284ZM14.0742 10.0631H14.442C14.8023 10.0631 15.0968 10.3568 15.0968 10.7184C15.0968 10.7721 15.0902 10.8265 15.0784 10.8769L14.4428 13.4181H14.0734L13.4386 10.8785C13.4259 10.8265 13.4194 10.7721 13.4194 10.7184C13.4194 10.3568 13.7138 10.0631 14.0742 10.0631ZM8.11723 13.0769L9.31386 15.4707L10.8144 14.72L9.46744 12.0269C10.1718 11.594 10.9536 11.2754 11.7874 11.0923C11.7972 11.1562 11.7948 11.2217 11.8107 11.2844L12.7654 15.0956H15.7516L16.7062 11.2828C16.7214 11.2209 16.7189 11.1562 16.7296 11.0923C17.5642 11.2762 18.3452 11.594 19.0495 12.0269L17.7026 14.7208L19.2031 15.4715L20.401 13.0769C21.4072 14.0676 22.1284 15.3433 22.4523 16.7739H6.06468C6.38943 15.3433 7.11061 14.0684 8.11723 13.0769ZM5.03226 18.4505H23.4839C23.9467 18.4505 24.3226 18.8273 24.3226 19.2893C24.3226 19.7516 23.9467 20.128 23.4839 20.128H5.03226C4.5695 20.128 4.19355 19.7516 4.19355 19.2893C4.19355 18.8273 4.5695 18.4505 5.03226 18.4505ZM6.70968 22.7634C6.41114 22.8416 6.13102 22.9587 5.87097 23.1107V21.8055H6.70968V22.7634ZM5.87097 25.9991C5.87097 25.3812 6.21047 24.8459 6.70968 24.5551V25.9991C6.70968 26.5225 6.76333 27.0345 6.86571 27.5284C6.28091 27.2659 5.87097 26.681 5.87097 25.9991ZM8.38711 25.9991V21.8055H20.1291V25.9991C20.1291 29.237 17.4946 31.8703 14.2581 31.8703C11.0216 31.8703 8.38711 29.237 8.38711 25.9991ZM14.2581 33.5478C15.1414 33.5478 15.9859 33.3877 16.7742 33.1075V34.3865C16.7742 35.774 15.6451 36.9027 14.2581 36.9027C12.871 36.9027 11.7419 35.774 11.7419 34.3865V33.1075C12.5303 33.3877 13.3747 33.5478 14.2581 33.5478ZM1.67742 40.1406C1.67742 38.7665 2.55299 37.551 3.85733 37.1169L6.70968 36.1656V37.8852C6.70968 39.1908 6.20146 40.419 5.27798 41.3421L5.03226 41.5883V46.9676H1.67742V40.1406ZM43.613 40.4952L41.7811 41.1148L41.673 41.5662C41.4474 42.5097 41.0743 43.4099 40.5653 44.2392L40.322 44.6344L41.1791 46.3696L39.6586 47.8903L37.9238 47.0323L37.529 47.2756C36.6985 47.7862 35.7996 48.1597 34.8552 48.3842L34.4039 48.4919L33.7851 50.3225H31.6343L31.0155 48.4911L30.5642 48.3834C30.0838 48.2687 29.2373 47.9071 28.517 47.5757V45.6837C29.7472 46.5064 31.201 46.9676 32.7097 46.9676C36.8721 46.9676 40.2581 43.5811 40.2581 39.4189C40.2581 35.2572 36.8721 31.8703 32.7097 31.8703C29.8823 31.8703 27.3228 33.4573 26.0328 35.908C25.7662 35.7581 25.4885 35.6246 25.19 35.525L24.4737 35.2859C24.5908 35.0524 24.717 34.8227 24.8534 34.5999L25.0966 34.2039L24.2395 32.4686L25.76 30.948L27.4948 31.806L27.8896 31.5627C28.7201 31.052 29.619 30.6785 30.5634 30.4537L31.0147 30.3464L31.6343 28.5154H33.7851L34.4039 30.3472L34.8552 30.4545C35.7988 30.6794 36.6977 31.0529 37.529 31.5636L37.9238 31.8068L39.6586 30.9488L41.1791 32.4695L40.322 34.2047L40.5653 34.5999C41.0743 35.4292 41.4482 36.3281 41.673 37.273L41.7811 37.7239L43.613 38.3431V40.4952Z" fill="#2657D8"/>
<path d="M52 10.0632C52 7.20256 50.7763 4.46806 48.6435 2.5592C46.5115 0.65279 43.6432 -0.257207 40.779 0.0630529C36.3639 0.556139 32.6695 4.09169 31.9942 8.46722C31.4188 12.1887 32.9242 15.8893 35.922 18.1246C35.9748 18.1639 36.0182 18.2184 36.0678 18.263C35.5555 18.7241 35.2258 19.386 35.2258 20.128C35.2258 21.2203 35.9294 22.143 36.9032 22.4903V22.6442C36.9032 25.4197 39.1601 27.6767 41.9355 27.6767C44.7108 27.6767 46.9677 25.4197 46.9677 22.6442V22.4903C47.9416 22.143 48.6452 21.2203 48.6452 20.128C48.6452 19.3843 48.3139 18.7217 47.7991 18.2601C47.8376 18.227 47.8712 18.1831 47.9121 18.1528C50.4721 16.2616 52 13.2371 52 10.0632ZM41.9355 25.9992C40.0852 25.9992 38.5806 24.4945 38.5806 22.6442H45.2903C45.2903 24.4945 43.7857 25.9992 41.9355 25.9992ZM46.129 20.9668H37.7419C37.2792 20.9668 36.9032 20.5904 36.9032 20.128C36.9032 19.6661 37.2792 19.2893 37.7419 19.2893H46.129C46.5918 19.2893 46.9677 19.6661 46.9677 20.128C46.9677 20.5904 46.5918 20.9668 46.129 20.9668ZM39.4193 9.22445H38.5806C38.1179 9.22445 37.7419 8.84809 37.7419 8.38572C37.7419 7.92376 38.1179 7.54698 38.5806 7.54698C39.0434 7.54698 39.4193 7.92376 39.4193 8.38572V9.22445ZM42.7742 17.6118H41.0968V10.9019H42.7742V17.6118ZM46.129 17.6118H44.4516V10.9019H45.2903C46.6774 10.9019 47.8064 9.77324 47.8064 8.38572C47.8064 6.99861 46.6774 5.86951 45.2903 5.86951C43.9032 5.86951 42.7742 6.99861 42.7742 8.38572V9.22445H41.0968V8.38572C41.0968 6.99861 39.9677 5.86951 38.5806 5.86951C37.1936 5.86951 36.0645 6.99861 36.0645 8.38572C36.0645 9.77324 37.1936 10.9019 38.5806 10.9019H39.4193V17.6118H37.7419C37.7345 17.6118 37.7268 17.6147 37.7194 17.6147C37.4851 17.2973 37.2288 17.0082 36.9241 16.7809C34.4256 14.9162 33.1716 11.8295 33.6524 8.724C34.2143 5.08278 37.2898 2.14147 40.9661 1.73029C43.3897 1.45958 45.7224 2.19757 47.5247 3.80952C49.3029 5.39976 50.3226 7.67967 50.3226 10.0632C50.3226 12.7465 49.0813 15.2033 46.9157 16.8034C46.6213 17.0209 46.3715 17.3034 46.1434 17.6135C46.1384 17.6135 46.1339 17.6118 46.129 17.6118ZM44.4516 9.22445V8.38572C44.4516 7.92376 44.8275 7.54698 45.2903 7.54698C45.7531 7.54698 46.129 7.92376 46.129 8.38572C46.129 8.84809 45.7531 9.22445 45.2903 9.22445H44.4516Z" fill="#2657D8"/>
<path d="M15.9355 40.2577H19.2903V41.9352H15.9355V40.2577Z" fill="#2657D8"/>
</svg>
