<svg width="52" height="52" viewBox="0 0 52 52" fill="none" xmlns="http://www.w3.org/2000/svg">
<path d="M42.25 48.7507C42.25 47.8547 41.5212 47.126 40.625 47.126H29.25V43.0497C41.8681 42.62 52 32.2246 52 19.5067C52 14.7854 50.6082 10.2307 47.9757 6.33475C47.8278 6.11542 47.5832 5.9822 47.3184 5.97732C47.0681 5.98463 46.8041 6.09592 46.6481 6.30794L45.6584 7.65235L46.9666 8.61578L47.2542 8.22505C49.2993 11.6255 50.375 15.5011 50.375 19.5067C50.375 31.6007 40.534 41.4397 28.4375 41.4397C24.4644 41.4397 20.6099 40.3788 17.2266 38.3634L17.6378 37.9523L16.4881 36.8037L15.3562 37.9361C15.184 38.1091 15.0979 38.3504 15.1231 38.5933C15.1474 38.8362 15.2799 39.0547 15.4838 39.1887C19.1043 41.5753 23.2862 42.9035 27.6242 43.0505L27.625 47.126H16.25C15.3538 47.126 14.625 47.8547 14.625 48.7507V50.3753H11V52H46V50.3753H42.25V48.7507ZM16.25 50.3753V48.7507H40.625V50.3753H16.25Z" fill="#2657D8"/>
<path d="M26.7069 1.70771L23.842 4.57199C23.5349 4.87905 23.3659 5.28684 23.3659 5.72063C23.3659 6.15441 23.5349 6.5622 23.842 6.86926L25.8326 8.85948L24.8536 13.7513C24.7471 14.285 24.9129 14.8334 25.298 15.2184L27.8631 17.7829C28.1702 18.09 28.5781 18.259 29.0119 18.259C29.4466 18.259 29.8545 18.09 30.1608 17.7829L31.7891 16.155L30.6402 15.0064L29.0119 16.6343L26.4469 14.0698L27.4259 9.17791C27.5324 8.64421 27.3666 8.09589 26.9815 7.71084L24.9909 5.72063L29.0615 1.65084C33.6042 1.80681 37.8601 3.65243 41.0776 6.86926C41.1336 6.92531 41.1897 6.98218 41.2449 7.03823C41.2482 7.04148 41.2514 7.04473 41.2539 7.04798C41.3043 7.09997 41.3546 7.15196 41.4042 7.20394C41.4375 7.23969 41.4708 7.27543 41.5041 7.31117C41.5228 7.33067 41.5407 7.35016 41.5594 7.36966C43.1511 9.08856 44.3422 11.0471 45.1336 13.1234L38.9399 16.22L37.9381 15.2184L38.3427 13.199C38.4491 12.6653 38.2834 12.1161 37.8983 11.7319L37.0565 10.8903C36.4236 10.2575 35.3917 10.2575 34.7588 10.8903L32.0125 13.636L33.1614 14.7846L35.9068 12.0389L36.7494 12.8797L36.3447 14.9C36.2383 15.4337 36.4041 15.982 36.7892 16.3671L37.7918 17.3695C38.2866 17.8634 39.0398 17.9868 39.6671 17.6733L45.6471 14.6839C47.3216 20.6976 45.799 27.4229 41.0784 32.1434C37.5635 35.6575 32.9363 37.3983 28.3189 37.3683L29.0501 35.1725C29.2459 34.5844 29.0956 33.9484 28.6577 33.5113L27.2894 32.1425L30.1616 29.2701C30.7954 28.6373 30.7954 27.6057 30.1616 26.9729L26.5192 23.332C26.0601 22.8714 25.3719 22.73 24.7658 22.9713L20.0159 24.8714L20.6196 26.3799L25.3695 24.4798L29.0119 28.1215L26.1398 30.9939C25.8326 31.301 25.6636 31.7088 25.6636 32.1425C25.6636 32.5763 25.8326 32.9841 26.1398 33.2912L27.508 34.6591L26.6354 37.2781C25.3979 37.1538 24.1711 36.9012 22.9767 36.5202C22.9539 36.5129 22.9312 36.5056 22.9084 36.4983C22.8897 36.4918 22.8711 36.4861 22.8516 36.4796C20.5311 35.7176 18.3804 34.4845 16.5393 32.8428C16.5214 32.8273 16.5043 32.8111 16.4864 32.7957C16.4629 32.7745 16.4401 32.7534 16.4174 32.7331C16.3832 32.7022 16.3499 32.6714 16.3158 32.6405C16.3012 32.6267 16.2857 32.6129 16.2711 32.5991C16.2264 32.5576 16.1817 32.5154 16.1371 32.4732C16.1322 32.4683 16.1265 32.4634 16.1216 32.4585C16.0127 32.3546 15.9047 32.2498 15.7974 32.1425C15.444 31.7892 15.1044 31.4196 14.7818 31.0386C14.5998 30.8233 14.4227 30.604 14.2513 30.3822L12.9626 31.3724C13.4794 32.0443 14.0457 32.6901 14.6477 33.2912C14.7038 33.3472 14.7599 33.4025 14.8159 33.4569L14.8842 33.5227C14.9167 33.5544 14.9492 33.5861 14.9825 33.6169C15.015 33.6478 15.0475 33.6787 15.08 33.7087C15.1019 33.729 15.1239 33.7501 15.1458 33.7705C15.1848 33.807 15.2238 33.8428 15.2636 33.8793C15.2774 33.8923 15.2921 33.9053 15.3059 33.9175C15.3538 33.9614 15.4026 34.0052 15.4505 34.0483L15.4529 34.0507C17.4257 35.8127 19.6731 37.1035 22.0488 37.9231C23.6827 38.4885 25.3963 38.8386 27.1497 38.9548C27.1676 38.9556 27.1854 38.9564 27.2033 38.9564C27.2139 38.9564 27.2244 38.9556 27.235 38.9548C27.6356 38.9791 28.0369 38.9913 28.4375 38.9913C33.4311 38.9913 38.4247 37.0913 42.2264 33.2904C47.6182 27.8997 49.1855 20.1119 46.9308 13.3273C46.9259 13.307 46.9202 13.2867 46.9129 13.2664C46.0809 10.7993 44.7956 8.57354 43.0836 6.63206L43.0812 6.62963C43.0324 6.57439 42.9837 6.51996 42.9349 6.46553C42.9203 6.44929 42.9057 6.43304 42.8911 6.41679C42.8504 6.37212 42.8098 6.32744 42.7692 6.28357C42.7448 6.25677 42.7196 6.23077 42.6953 6.20396C42.6628 6.16903 42.6303 6.1341 42.5969 6.09917C42.5604 6.06018 42.523 6.02119 42.4848 5.98301C42.4613 5.95864 42.4377 5.93346 42.4141 5.90909C42.3524 5.84491 42.2898 5.78155 42.2264 5.719C42.1712 5.66376 42.1167 5.60934 42.0607 5.55572C42.0249 5.52079 41.9884 5.48586 41.9526 5.45174C41.9323 5.43225 41.912 5.41194 41.8917 5.39244C41.8576 5.35995 41.8242 5.32827 41.7901 5.29659C41.7674 5.27547 41.7446 5.25353 41.7219 5.23241C41.6869 5.19992 41.652 5.16743 41.6162 5.13493C41.5943 5.11463 41.5724 5.09432 41.5504 5.07482C41.509 5.03745 41.4684 5.0009 41.4269 4.96353C41.4115 4.94972 41.3953 4.9351 41.3798 4.92129C41.3424 4.88799 41.3059 4.85549 41.2685 4.823C41.2466 4.8035 41.2238 4.78401 41.2019 4.76451C41.1661 4.73364 41.1304 4.70277 41.0946 4.67272C41.0719 4.65322 41.0491 4.63373 41.0272 4.61504C40.9914 4.58417 40.9549 4.55412 40.9191 4.52406C40.8956 4.50456 40.872 4.48507 40.8484 4.46557C40.8135 4.43633 40.7786 4.4079 40.7436 4.37947C40.7193 4.35916 40.6941 4.33885 40.6697 4.31854C40.6348 4.29011 40.5998 4.26249 40.5649 4.23487C40.5389 4.21456 40.5129 4.19344 40.4869 4.17313C40.4552 4.14876 40.4243 4.12439 40.3926 4.10002C40.3618 4.07647 40.3317 4.05291 40.3008 4.02935C40.2699 4.00579 40.2391 3.98224 40.2082 3.95868C40.1781 3.93593 40.1489 3.91319 40.1188 3.89125C40.0871 3.86688 40.0546 3.84333 40.0229 3.81977C39.9929 3.79784 39.9628 3.77509 39.9328 3.75316C39.9027 3.73122 39.8718 3.70848 39.8418 3.68655C39.8084 3.66218 39.7743 3.63781 39.741 3.61425C39.7142 3.59556 39.6882 3.57688 39.6614 3.55739C39.6232 3.53058 39.585 3.50377 39.5468 3.47696C39.5241 3.46072 39.5005 3.44528 39.4778 3.42904C39.4363 3.40061 39.3949 3.37217 39.3543 3.34455C39.3323 3.32993 39.3104 3.31531 39.2884 3.30069C39.2438 3.27063 39.1991 3.24139 39.1544 3.21133C39.1373 3.19996 39.1211 3.1894 39.104 3.17803C39.052 3.14391 39 3.10979 38.9472 3.07648C38.9374 3.06999 38.9277 3.0643 38.9179 3.0578C38.8578 3.01962 38.7977 2.98144 38.7376 2.94407C38.7351 2.94245 38.7319 2.94083 38.7294 2.9392C31.8581 -1.33692 22.8613 -0.986801 16.2955 4.24949L17.3087 5.51998C20.1004 3.29257 23.3724 2.0302 26.7069 1.70771Z" fill="#2657D8"/>
<path d="M35.4096 30.2433L36.3001 31.1344C36.6072 31.4415 37.0151 31.6105 37.4489 31.6105C37.8836 31.6105 38.2915 31.4415 38.5978 31.1344L40.1489 29.5837C40.456 29.2758 40.625 28.868 40.625 28.4342V24.3807C40.625 23.9534 40.4519 23.5343 40.1489 23.2321L37.7869 20.8706C37.3482 20.4344 36.7136 20.2833 36.1246 20.4799L33.6115 21.3166C32.9469 21.5375 32.5 22.1574 32.5 22.8576V24.1752C32.5 24.7422 32.8022 25.2759 33.2889 25.5683L35.3584 26.8096L34.9651 28.7754C34.8571 29.3083 35.0236 29.8575 35.4096 30.2433ZM34.125 24.1752V22.8576L36.6389 22.0201L39 24.3807V28.4342L37.4489 29.985L36.5584 29.0947L36.9517 27.128C37.0866 26.457 36.7827 25.769 36.1944 25.4164L34.125 24.1752Z" fill="#2657D8"/>
<path d="M1.352 18.4921C1.87281 21.4986 3.48888 24.1833 5.90363 26.0501L10.8777 29.8973C11.024 30.011 11.1995 30.067 11.375 30.067C11.5489 30.067 11.7228 30.0118 11.8682 29.9005L16.7749 26.1548C19.2229 24.2857 20.8609 21.5855 21.3866 18.5514L22.7378 10.7579C22.7971 10.4143 22.6314 10.0715 22.3251 9.90495L11.7626 4.1707C11.5213 4.0391 11.2287 4.0391 10.9874 4.1707L0.424937 9.90495C0.118625 10.0715 -0.0479375 10.4143 0.0121875 10.7579L1.352 18.4921ZM11.375 5.80917L21.0373 11.0544L19.7852 18.2736C19.3294 20.9031 17.9099 23.2434 15.7885 24.8632L11.3783 28.2303L6.89812 24.7649C4.80594 23.1468 3.40438 20.8211 2.95344 18.2151L1.71275 11.0552L11.375 5.80917Z" fill="#2657D8"/>
<path d="M4.18844 18.0185C4.55975 20.1615 5.71187 22.0745 7.43275 23.4059L10.8769 26.0695C11.0232 26.1833 11.1987 26.2393 11.3742 26.2393C11.5481 26.2393 11.7219 26.1841 11.8674 26.0728L15.2644 23.4798C17.0097 22.1468 18.1772 20.2224 18.5518 18.06L19.487 12.6636C19.5463 12.32 19.3806 11.9772 19.0742 11.8107L16.6392 10.489L15.8641 11.9171L17.7864 12.9601L16.9504 17.7821C16.6457 19.54 15.6967 21.1054 14.2773 22.1882L11.3766 24.4026L8.42644 22.1208C7.02731 21.0388 6.0905 19.4832 5.78906 17.7407L4.96112 12.9601L6.88675 11.9155L6.11162 10.4874L3.67412 11.8107C3.36781 11.9772 3.20125 12.32 3.26137 12.6636L4.18844 18.0185Z" fill="#2657D8"/>
<path d="M11.3742 9.47929L14.2399 11.0349L15.015 9.60682L11.7618 7.84163C11.5196 7.71003 11.2288 7.71003 10.9866 7.84163L7.73744 9.6052L8.51256 11.0333L11.3742 9.47929Z" fill="#2657D8"/>
<path d="M14.8135 13.2997L11.3206 17.4905L9.51194 15.6823L8.36306 16.8309L10.8006 19.2679C10.9533 19.4222 11.1597 19.5067 11.375 19.5067C11.3872 19.5067 11.3994 19.5067 11.4116 19.5059C11.6399 19.4953 11.8527 19.3897 11.999 19.2151L16.0615 14.3411L14.8135 13.2997Z" fill="#2657D8"/>
<path d="M10.5625 21.1314H12.1875V22.756H10.5625V21.1314Z" fill="#2657D8"/>
<path d="M10.5625 11.3834H12.1875V13.0081H10.5625V11.3834Z" fill="#2657D8"/>
</svg>
