<svg width="39" height="48" viewBox="0 0 39 48" fill="none" xmlns="http://www.w3.org/2000/svg">
<path d="M8.43232 17.7041C8.03535 17.7041 7.71363 18.0219 7.71363 18.4142V24.8521C7.71363 25.2444 8.03535 25.5622 8.43232 25.5622H14.9484C15.3454 25.5622 15.6671 25.2444 15.6671 24.8521V18.4142C15.6671 18.0219 15.3454 17.7041 14.9484 17.7041H8.43232ZM14.2297 24.1421H9.15102V19.1242H14.2297V24.1421Z" fill="#2657D8"/>
<path d="M30.5673 17.9879H18.1104C17.7134 17.9879 17.3917 18.3061 17.3917 18.698C17.3917 19.0902 17.7134 19.4081 18.1104 19.4081H30.5673C30.9642 19.4081 31.286 19.0902 31.286 18.698C31.286 18.3061 30.9642 17.9879 30.5673 17.9879Z" fill="#2657D8"/>
<path d="M31.286 21.8225C31.286 21.4303 30.9642 21.1124 30.5673 21.1124H18.1104C17.7134 21.1124 17.3917 21.4303 17.3917 21.8225C17.3917 22.2147 17.7134 22.5326 18.1104 22.5326H30.5673C30.9642 22.5326 31.286 22.2147 31.286 21.8225Z" fill="#2657D8"/>
<path d="M18.1104 24.1421C17.7134 24.1421 17.3917 24.4599 17.3917 24.8521C17.3917 25.244 17.7134 25.5619 18.1104 25.5619H27.6929C28.0898 25.5619 28.4116 25.244 28.4116 24.8521C28.4116 24.4599 28.0898 24.1421 27.6929 24.1421H18.1104Z" fill="#2657D8"/>
<path d="M37.3228 5.20715C38.2476 5.20715 39 4.46375 39 3.55005V1.65674C39 0.743408 38.2476 0 37.3228 0H10.2211C9.82413 0 9.50241 0.317871 9.50241 0.710083C9.50241 1.10229 9.82413 1.42017 10.2211 1.42017H37.3228C37.4551 1.42017 37.5626 1.52637 37.5626 1.65674V3.55042C37.5626 3.68079 37.4551 3.78699 37.3228 3.78699H1.67683C1.54488 3.78699 1.43739 3.68079 1.43739 3.55042V1.65674C1.43739 1.52637 1.54488 1.42017 1.67683 1.42017H6.9071C7.30407 1.42017 7.62579 1.10229 7.62579 0.710083C7.62579 0.317871 7.30407 0 6.9071 0H1.67683C0.752424 0 0 0.743408 0 1.65674V3.55042C0 4.46375 0.752424 5.20715 1.67683 5.20715H2.10827V12.8917C2.10827 13.2836 2.42999 13.6018 2.82696 13.6018C3.22356 13.6018 3.54566 13.2836 3.54566 12.8917V5.20715H35.4543V27.7397H3.54566V16.2052C3.54566 15.813 3.22356 15.4951 2.82696 15.4951C2.42999 15.4951 2.10827 15.813 2.10827 16.2052V27.7397H1.67683C0.752424 27.7397 0 28.4828 0 29.3965V31.2898C0 32.2035 0.752424 32.9469 1.67683 32.9469H12.6426L6.29108 47.0006C6.19174 47.22 6.21176 47.4745 6.34445 47.6763C6.47677 47.8781 6.70361 48 6.94713 48H10.78C11.0636 48 11.3205 47.8352 11.4361 47.5796L16.8647 35.5682V47.2899C16.8647 47.6821 17.1864 48 17.5834 48H21.4163C21.8132 48 22.135 47.6821 22.135 47.2899V35.5682L27.5635 47.5796C27.6792 47.8352 27.936 48 28.2196 48H32.0544C32.4513 48 32.773 47.6821 32.773 47.2899C32.773 47.1683 32.7423 47.0541 32.6878 46.9541L26.3571 32.9469H31.8012C32.1982 32.9469 32.5199 32.6287 32.5199 32.2368C32.5199 31.8446 32.1982 31.5267 31.8012 31.5267H1.67683C1.54488 31.5267 1.43739 31.4205 1.43739 31.2898V29.3965C1.43739 29.2661 1.54488 29.1595 1.67683 29.1595H37.3228C37.4551 29.1595 37.5626 29.2657 37.5626 29.3965V31.2898C37.5626 31.4205 37.4551 31.5267 37.3228 31.5267H35.179C34.782 31.5267 34.4603 31.8446 34.4603 32.2368C34.4603 32.6287 34.782 32.9469 35.179 32.9469H37.3228C38.2476 32.9469 38.9996 32.2035 38.9996 31.2898V29.3965C38.9996 28.4828 38.2476 27.7397 37.3228 27.7397H36.8917V5.20715H37.3228ZM24.7833 32.9465L30.9446 46.5798H28.6859L22.5245 32.9465H24.7833ZM20.6976 32.9465V46.5798H18.3021V32.9465H20.6976ZM16.4755 32.9465L10.3141 46.5798H8.05501L14.2167 32.9465H16.4755Z" fill="#2657D8"/>
<path d="M17.4381 10.0814C17.2327 9.93053 16.9621 9.8983 16.7268 9.99755L5.70729 14.6367C5.3422 14.7905 5.17207 15.2076 5.32774 15.5683C5.44413 15.8382 5.70989 16.0001 5.98936 16.0001C6.08313 16.0001 6.17876 15.9818 6.27068 15.943L16.9102 11.4639L21.4659 14.818C21.6798 14.9751 21.9637 15.0029 22.2046 14.8894L31.1789 10.6633L30.6941 12.2439C30.5788 12.6189 30.7934 13.0155 31.1733 13.1294C31.243 13.1499 31.313 13.1598 31.382 13.1598C31.6904 13.1598 31.9754 12.9624 32.0695 12.6555L33.028 9.53136C33.1392 9.16845 32.9421 8.78319 32.5803 8.65612L29.6099 7.61498C29.2359 7.48388 28.8252 7.67687 28.6922 8.04674C28.5595 8.41625 28.7552 8.82201 29.1292 8.95348L30.4709 9.42369L21.9774 13.4235L17.4381 10.0814Z" fill="#2657D8"/>
</svg>
