<svg width="48" height="48" viewBox="0 0 48 48" fill="none" xmlns="http://www.w3.org/2000/svg">
<path d="M4.24314 32.4998L13.9353 30.347V28.8054C12.4614 27.8414 11.3069 26.4341 10.6559 24.7734H8.51595C6.80804 24.7734 5.41918 23.3845 5.41918 21.6766V16.2573C5.41918 15.116 6.04632 14.1282 6.96756 13.5911V10.2055C6.96756 8.51912 7.97538 7.01648 9.50675 6.36703L9.69123 5.9977C11.536 2.30781 15.2452 0.0154709 19.3709 0.0154709C25.3384 0.016227 30.1934 4.87119 30.1934 10.8387V13.5918C31.1146 14.129 31.7418 15.1168 31.7418 16.258V21.6774C31.7418 23.3853 30.3529 24.7742 28.645 24.7742H26.505C25.854 26.4348 24.6995 27.8422 23.2256 28.8062V30.3478L32.9178 32.5006C35.4162 33.0555 37.1611 35.2318 37.1611 37.7907V48H-0.000179291V37.7907C-0.000179291 35.2318 1.74478 33.0555 4.24314 32.4998ZM13.2696 32.081L14.4199 36.6819L17.3659 34.7188L14.4627 31.8156L13.2696 32.081ZM19.4942 40.258H17.666L16.4276 46.4516H20.7326L19.4942 40.258ZM17.6365 38.7096H19.5244L20.0204 36.7284L18.5805 35.7694L17.1413 36.7292L17.6365 38.7096ZM6.96756 21.6774C6.96756 22.5313 7.66199 23.2258 8.51595 23.2258H10.2121C10.1192 22.7226 10.0643 22.207 10.0643 21.6774V14.7096H8.51595C7.66199 14.7096 6.96756 15.4041 6.96756 16.258V21.6774ZM28.645 10.8387C28.645 5.72515 24.4844 1.56461 19.3709 1.56461C15.836 1.56461 12.6572 3.52883 11.0763 6.69138L10.6125 7.61716L10.3082 7.71885C9.23684 8.07646 8.51595 9.07595 8.51595 10.207V13.1613H10.0643V10.8387H11.6127V12.6657C12.1896 12.9609 12.8198 13.1265 13.4692 13.1503C13.1123 12.8252 12.791 12.4551 12.517 12.0427L13.8053 11.1838C14.601 12.3776 15.915 13.1008 17.3417 13.1518C16.9841 12.826 16.6628 12.4551 16.3879 12.0427L17.6762 11.1838C18.472 12.3776 19.786 13.1008 21.2126 13.1518C20.855 12.826 20.5337 12.4551 20.2589 12.0427L21.5472 11.1838C22.3724 12.4218 23.7545 13.1613 25.2424 13.1613H25.5482V10.8387H27.0966V13.1613H28.645V10.8387ZM28.645 23.2258C29.4989 23.2258 30.1934 22.5313 30.1934 21.6774V16.258C30.1934 15.4041 29.4989 14.7096 28.645 14.7096H27.0966V21.6774C27.0966 22.207 27.0418 22.7226 26.9488 23.2258H28.645ZM25.5482 21.6774V14.7096H25.2424C24.2523 14.7096 23.2986 14.4651 22.4514 14.019V14.7096H21.3714C20.3814 14.7096 19.4276 14.4651 18.5805 14.019V14.7096H17.5005C16.5104 14.7096 15.5567 14.4651 14.7095 14.019V14.7096H13.6295C12.9358 14.7096 12.2576 14.5758 11.6127 14.3441V21.6774C11.6127 22.21 11.6785 22.7272 11.7923 23.2258H15.627C15.9475 22.3268 16.7992 21.6774 17.807 21.6774H19.3554C20.6358 21.6774 21.678 22.7196 21.678 24C21.678 25.2803 20.6358 26.3225 19.3554 26.3225H17.807C16.7992 26.3225 15.9475 25.6731 15.627 24.7742H12.3484C13.4907 27.0642 15.8523 28.6451 18.5805 28.6451C22.4227 28.6451 25.5482 25.5196 25.5482 21.6774ZM17.0321 24C17.0321 24.4264 17.3791 24.7742 17.8063 24.7742H19.3547C19.7818 24.7742 20.1289 24.4264 20.1289 24C20.1289 23.5736 19.7818 23.2258 19.3547 23.2258H17.8063C17.3791 23.2258 17.0321 23.5736 17.0321 24ZM18.5805 30.1935C17.4872 30.1935 16.4454 29.9792 15.4837 29.6019V30.6471L18.5805 33.7439L21.6772 30.6471V29.6019C20.7155 29.9792 19.6737 30.1935 18.5805 30.1935ZM22.6983 31.8156L19.7951 34.7188L22.741 36.6819L23.8913 32.081L22.6983 31.8156ZM35.6127 37.7907C35.6127 35.9629 34.3664 34.4081 32.5817 34.0119L25.4027 32.4163L23.7103 39.189L21.3877 37.6406L20.9223 39.5031L22.3119 46.4516H29.4192V37.9355H30.9676V46.4516H35.6127V37.7907ZM1.54821 46.4516H6.19337V37.9355H7.74176V46.4516H14.849L16.2386 39.5031L15.7733 37.6406L13.4507 39.189L11.7583 32.4163L4.57921 34.0119C2.79456 34.4081 1.54821 35.9629 1.54821 37.7907V46.4516Z" fill="#2657D8"/>
<path d="M13.1614 17.0323C13.1614 17.4599 13.5081 17.8065 13.9356 17.8065C14.3632 17.8065 14.7098 17.4599 14.7098 17.0323C14.7098 16.6048 14.3632 16.2581 13.9356 16.2581C13.5081 16.2581 13.1614 16.6048 13.1614 17.0323Z" fill="#2657D8"/>
<path d="M22.4516 17.0323C22.4516 17.4599 22.7983 17.8065 23.2258 17.8065C23.6534 17.8065 24 17.4599 24 17.0323C24 16.6048 23.6534 16.2581 23.2258 16.2581C22.7983 16.2581 22.4516 16.6048 22.4516 17.0323Z" fill="#2657D8"/>
<path d="M44.9034 3.09679H37.1615V4.64518H44.9034V3.09679Z" fill="#2657D8"/>
<path d="M44.9034 6.19359H37.1615V7.74198H44.9034V6.19359Z" fill="#2657D8"/>
<path d="M36.3871 13.6917V10.8387H34.0645V0H48V10.8387H41.6137L36.3871 13.6917ZM46.4516 1.54839H35.6129V9.29032H37.9355V11.0825L41.219 9.29032H46.4516V1.54839Z" fill="#2657D8"/>
<path d="M31.7419 28.6452H44.2311L43.3548 27.3316V14.7098C43.3548 13.4294 44.3971 12.3872 45.6774 12.3872C46.9578 12.3872 48 13.4294 48 14.7098V27.3316L46.0917 30.1936H31.7419V28.6452ZM45.6774 13.9356C45.2503 13.9356 44.9032 14.2833 44.9032 14.7098V16.2581H46.4516V14.7098C46.4516 14.2833 46.1046 13.9356 45.6774 13.9356ZM45.6774 28.0234L46.4516 26.8621V17.8065H44.9032V26.8621L45.6774 28.0234Z" fill="#2657D8"/>
<path d="M33.2902 25.5483H31.7418V27.0967H33.2902V25.5483Z" fill="#2657D8"/>
<path d="M41.8064 25.5483H34.8387V27.0967H41.8064V25.5483Z" fill="#2657D8"/>
<path d="M41.8064 22.4517H34.8387V24.0001H41.8064V22.4517Z" fill="#2657D8"/>
<path d="M36.3872 19.3549H34.8388V20.9033H36.3872V19.3549Z" fill="#2657D8"/>
<path d="M41.8064 19.3549H37.9354V20.9033H41.8064V19.3549Z" fill="#2657D8"/>
</svg>
