<svg width="48" height="48" viewBox="0 0 48 48" fill="none" xmlns="http://www.w3.org/2000/svg">
<path d="M45.0666 23.1694C41.8304 23.1694 38.8266 21.5661 37.0312 18.8792L36.3871 17.9153L35.743 18.8792C33.9476 21.5661 30.9437 23.1694 27.7076 23.1694H24.7742V35.5542C24.7742 38.5477 26.1252 41.3612 28.3827 43.2495H12.3871V40.1603H22.4516V26.2586H6.19355V32.4371H1.54839V1.54463H35.6129V15.4463H37.1613V0H0V33.5292L11.2924 44.7941H30.7626L36.3871 48L42.929 44.2713C46.0568 42.4888 48 39.1478 48 35.5542V23.1694H45.0666ZM10.8387 42.1575L2.6431 33.9818H10.8387V42.1575ZM7.74194 32.4371V27.8033H20.9032V38.6156H12.3871V32.4371H7.74194ZM46.4516 35.5542C46.4516 38.5955 44.8072 41.4214 42.161 42.9305L36.3871 46.2221L30.6132 42.9305C27.967 41.4214 26.3226 38.5955 26.3226 35.5542V24.714H27.7076C31.0986 24.714 34.2697 23.1964 36.3871 20.6068C38.5045 23.1964 41.6756 24.714 45.0666 24.714H46.4516V35.5542Z" fill="#2657D8"/>
<path d="M43.3548 30.8925V35.5542C43.3548 37.4896 42.3081 39.2883 40.6243 40.2483L41.3923 41.589C43.5577 40.3549 44.9032 38.0426 44.9032 35.5542V30.8925H43.3548Z" fill="#2657D8"/>
<path d="M4.64516 3.08925V7.72313H32.5161V3.08925H4.64516ZM30.9677 6.1785H6.19355V4.63388H30.9677V6.1785Z" fill="#2657D8"/>
<path d="M42.8075 26.4849L32.5161 36.7513L29.9667 34.208L28.872 35.3001L32.5161 38.9354L43.9022 27.577L42.8075 26.4849Z" fill="#2657D8"/>
<path d="M19.3548 29.3479H9.29032V30.8925H19.3548V29.3479Z" fill="#2657D8"/>
<path d="M19.3548 32.4371H13.9355V33.9818H19.3548V32.4371Z" fill="#2657D8"/>
<path d="M19.3548 35.5264H13.9355V37.071H19.3548V35.5264Z" fill="#2657D8"/>
<path d="M29.4194 10.8124H4.64516V12.357H29.4194V10.8124Z" fill="#2657D8"/>
<path d="M29.4194 13.9016H4.64516V15.4463H29.4194V13.9016Z" fill="#2657D8"/>
<path d="M29.4194 16.9909H4.64516V18.5355H29.4194V16.9909Z" fill="#2657D8"/>
<path d="M19.3548 20.0801H4.64516V21.6248H19.3548V20.0801Z" fill="#2657D8"/>
<path d="M19.3548 23.1694H4.64516V24.714H19.3548V23.1694Z" fill="#2657D8"/>
<path d="M32.5161 10.8124H30.9677V12.357H32.5161V10.8124Z" fill="#2657D8"/>
<path d="M32.5161 13.9016H30.9677V15.4463H32.5161V13.9016Z" fill="#2657D8"/>
<path d="M32.5161 16.9909H30.9677V18.5355H32.5161V16.9909Z" fill="#2657D8"/>
<path d="M22.4516 20.0801H20.9032V21.6248H22.4516V20.0801Z" fill="#2657D8"/>
<path d="M22.4516 23.1694H20.9032V24.714H22.4516V23.1694Z" fill="#2657D8"/>
</svg>
