<svg width="66" height="33" viewBox="0 0 66 33" fill="none" xmlns="http://www.w3.org/2000/svg">
<path fill-rule="evenodd" clip-rule="evenodd" d="M34.2842 0.994965C46.8352 -2.33321 57.7248 3.19092 57.5538 10.1181C54.762 7.32098 52.6855 6.2819 48.2019 5.236C53.1808 7.24197 54.504 8.57336 56.4535 11.0058C51.5281 10.527 47.1148 7.65233 43.2049 5.10561C39.8659 2.93069 36.8941 0.994965 34.2842 0.994965ZM54.0232 20.1228C54.2605 19.1866 54.5109 18.3317 54.7874 17.5369L54.8026 17.5402L54.7989 17.5231L54.7964 17.511C56.1241 13.7077 58.0535 11.2801 62.0096 7.8903C56.656 11.348 54.3088 13.8294 52.4394 18.2557C51.4254 18.0645 50.417 17.969 49.414 17.969C47.7857 17.969 46.4361 18.5476 45.3652 19.7048C44.309 20.8489 43.7809 22.1837 43.7809 23.7092C43.7809 24.8269 44.0816 25.7738 44.6831 26.5497C45.2846 27.3256 46.1354 27.7135 47.2356 27.7135C47.6757 27.7135 48.0938 27.6215 48.4898 27.4373C49.2674 27.0692 50.1768 26.0697 51.2184 24.439C51.233 24.7941 51.2698 25.399 51.3284 26.2538C51.4018 27.1086 51.4384 27.7596 51.4384 28.2066C51.4384 29.114 51.1744 29.857 50.6463 30.4357C50.1182 31.0143 49.3846 31.3036 48.4458 31.3036C47.9031 31.3036 47.4336 31.1327 47.0376 30.7907C46.6415 30.4488 46.4434 30.0411 46.4434 29.5677C46.4434 29.4362 46.4654 29.2849 46.5094 29.114C46.3334 29.0877 46.1868 29.0746 46.0694 29.0746C45.5266 29.0746 45.0572 29.239 44.6611 29.5677C44.265 29.8964 44.067 30.2976 44.067 30.771C44.067 31.5337 44.441 32.0926 45.1892 32.4477C45.952 32.8159 46.8615 33 47.9177 33C49.7074 33 51.1744 32.4674 52.3186 31.4022C53.4628 30.3501 54.0349 29.0154 54.0349 27.3979C54.0349 26.9376 53.9836 26.2341 53.8809 25.2872C53.7783 24.3273 53.7269 23.525 53.7269 22.8807C53.7269 21.9732 53.8257 21.054 54.0232 20.1228ZM16.5253 24.3207L16.7453 20.0994C16.7453 18.6791 16.0045 17.969 14.5229 17.969C13.6721 17.969 12.8139 18.3174 11.9483 19.0144C11.0976 19.7115 10.4008 20.5202 9.85794 21.4407C9.90195 21.0067 9.92395 20.6122 9.92395 20.2572C9.92395 18.8369 9.18318 18.1268 7.70151 18.1268C6.86535 18.1268 6.02919 18.449 5.19302 19.0933C4.35686 19.7246 3.66746 20.4741 3.12462 21.3421C3.22738 20.4216 3.27864 19.8429 3.27864 19.6062C3.27864 19.1459 3.10998 18.7777 2.77255 18.5016C2.44985 18.2254 2.0244 18.0873 1.49629 18.0873C0.96819 18.0873 0.469462 18.1662 0 18.324C0.337436 19.6128 0.5061 20.7569 0.5061 21.7563C0.5061 22.7426 0.440086 23.742 0.30806 24.7546C0.176034 25.754 0.110021 26.451 0.110021 26.8456C0.110021 27.227 0.264051 27.5294 0.572112 27.7529C0.894915 27.9633 1.30563 28.0686 1.80436 28.0686C2.31783 28.0686 2.80929 27.9897 3.27864 27.8319C3.0586 26.9245 2.91194 25.9053 2.83856 24.7744C2.86793 24.3404 3.08061 23.7617 3.47668 23.0385C3.88751 22.302 4.38623 21.6314 4.97298 21.0265C5.55983 20.4216 6.08057 20.1191 6.53529 20.1191C7.19542 20.1191 7.52548 20.4478 7.52548 21.1054C7.52548 21.421 7.44483 22.1969 7.28343 23.433C7.12214 24.6691 7.04138 25.5503 7.04138 26.0763C7.04138 27.3256 7.66488 27.9502 8.91175 27.9502C9.2932 27.9502 9.76266 27.8713 10.32 27.7135C9.9827 26.6878 9.77729 25.6554 9.70391 24.6166C9.70391 23.9328 10.1587 22.9859 11.0682 21.776C11.9924 20.5662 12.7845 19.9613 13.4446 19.9613C14.0461 19.9613 14.3468 20.29 14.3468 20.9476C14.3468 21.2895 14.2662 22.1311 14.1048 23.4725C13.9435 24.8007 13.8627 25.7475 13.8627 26.313C13.8627 27.5623 14.4862 28.1869 15.7331 28.1869C16.2612 28.1869 16.7307 28.108 17.1414 27.9502C16.7307 26.8061 16.5253 25.5962 16.5253 24.3207ZM28.8431 23.3344C28.8431 21.8089 29.0411 20.29 29.4372 18.7777C27.6768 18.2385 25.9605 17.969 24.2882 17.969C22.6306 17.969 21.2809 18.6068 20.2394 19.8824C19.1979 21.1448 18.6771 22.6176 18.6771 24.3009C18.6771 25.4056 18.9851 26.3327 19.6012 27.0823C20.2174 27.8187 21.0829 28.1869 22.1977 28.1869C22.6672 28.1869 23.1219 28.0686 23.562 27.8319C24.5302 27.3059 25.5351 26.0434 26.5766 24.0445C26.3859 25.0177 26.2906 25.787 26.2906 26.3524C26.2906 26.9047 26.4006 27.3321 26.6206 27.6346C26.8407 27.9239 27.2295 28.0686 27.7868 28.0686C28.3443 28.0686 28.8871 27.9897 29.4152 27.8319C29.0338 26.3458 28.8431 24.8467 28.8431 23.3344ZM24.5742 19.6457C25.1171 19.6457 25.7772 19.7509 26.5546 19.9613C26.0853 21.5657 25.4471 23.0451 24.6402 24.3996C23.8334 25.754 23.1733 26.4313 22.6598 26.4313C22.2198 26.4313 21.8897 26.1223 21.6696 25.5042C21.4643 24.8861 21.3616 24.2746 21.3616 23.6697C21.3616 22.5256 21.611 21.4013 22.1097 20.2966C22.6526 19.8626 23.474 19.6457 24.5742 19.6457ZM41.4059 24.439L41.6259 20.0994C41.6259 18.6791 40.885 17.969 39.4035 17.969C38.5086 17.969 37.6138 18.324 36.719 19.0342C35.824 19.7312 35.0979 20.5464 34.5405 21.4802C34.6578 20.5859 34.7166 19.9349 34.7166 19.5273C34.7166 19.1197 34.5478 18.7777 34.2105 18.5016C33.8877 18.2254 33.4623 18.0873 32.9342 18.0873C32.4061 18.0873 31.9073 18.1662 31.4379 18.324C31.7752 19.6128 31.944 20.7569 31.944 21.7563C31.944 22.7426 31.878 23.742 31.746 24.7546C31.6139 25.754 31.5479 26.451 31.5479 26.8456C31.5479 27.227 31.702 27.5294 32.01 27.7529C32.3327 27.9633 32.7434 28.0686 33.2423 28.0686C33.7556 28.0686 34.2471 27.9897 34.7166 27.8319C34.4818 26.8981 34.3351 25.9185 34.2765 24.8927C34.3497 24.393 34.5992 23.7617 35.0246 22.999C35.4647 22.2231 35.9854 21.5262 36.5869 20.9081C37.203 20.2769 37.7532 19.9613 38.2373 19.9613C38.8974 19.9613 39.2274 20.29 39.2274 20.9476C39.2274 21.2895 39.1467 22.1311 38.9854 23.4725C38.824 24.8007 38.7434 25.7475 38.7434 26.313C38.7434 27.5623 39.3667 28.1869 40.6137 28.1869C41.1418 28.1869 41.6112 28.108 42.022 27.9502C41.6112 26.8061 41.4059 25.6357 41.4059 24.439ZM49.436 19.6457C50.1989 19.6457 50.9691 19.7509 51.7465 19.9613C51.233 21.4079 50.5582 22.7689 49.7221 24.0445C48.8859 25.3201 48.2185 25.9579 47.7197 25.9579C47.2796 25.9579 46.9642 25.6686 46.7735 25.09C46.5828 24.4982 46.4874 23.8933 46.4874 23.2752C46.4874 22.21 46.7515 21.204 47.2796 20.2572C47.9544 19.8495 48.6732 19.6457 49.436 19.6457ZM56.8462 27.0428C57.609 27.8844 58.7972 28.3053 60.4109 28.3053C62.0245 28.3053 63.3595 27.7727 64.4157 26.7075C65.4719 25.6292 66 24.3207 66 22.7821C66 19.4945 64.3717 17.8506 61.115 17.8506C59.5307 17.8506 58.2325 18.4096 57.2203 19.5273C56.2081 20.6451 55.702 21.9667 55.702 23.4922C55.702 25.0045 56.0833 26.188 56.8462 27.0428ZM58.4305 22.3086C58.4305 21.5459 58.5625 20.7832 58.8266 20.0205C59.4573 19.6917 60.1981 19.5273 61.049 19.5273C62.5306 19.5273 63.2715 20.9278 63.2715 23.7289C63.2715 24.7152 63.1101 25.445 62.7874 25.9185C62.4793 26.3919 61.8264 26.6286 60.829 26.6286C59.8461 26.6286 59.1859 26.2012 58.8486 25.3464C58.6872 24.9256 58.5772 24.5048 58.5185 24.084C58.4598 23.6631 58.4305 23.0713 58.4305 22.3086ZM55.8698 16.4758C58.5592 18.4777 63.7021 16.56 65.9154 11.6382C65.1812 12.4675 63.6011 12.8697 61.8251 13.3218C59.7474 13.8506 57.4015 14.4477 55.8282 15.8768C57.3377 15.9415 58.2358 15.8956 60.4284 14.8783C58.7545 16.0082 57.76 16.3755 55.8698 16.4758Z" fill="white" fill-opacity="0.1"/>
</svg>
