<svg width="1113" height="129" viewBox="0 0 1113 129" fill="none" xmlns="http://www.w3.org/2000/svg">
<path d="M773.819 49.5467C775.196 51.3322 775.808 53.8616 775.808 57.135V119.18C775.808 120.817 775.502 122.156 774.89 122.9C774.278 123.792 773.513 124.239 772.29 124.536C771.219 124.685 769.383 124.834 767.088 124.983V128.702H802.276V125.132H798.91C796.768 125.132 795.085 124.834 794.014 124.388C792.79 123.941 792.025 123.197 791.719 122.156C791.413 121.114 791.26 119.775 791.26 117.99V95.225C796.003 97.1592 800.593 98.2007 805.335 98.2007C811.302 98.2007 816.809 96.8616 821.705 94.3322C826.601 91.8028 830.426 88.0831 833.179 83.4706C835.933 78.8581 837.31 73.6505 837.31 67.8478C837.31 63.6817 836.545 59.8132 835.015 56.0934C833.485 52.3737 831.497 49.2492 829.049 46.571C826.601 43.8928 823.694 41.9585 820.328 40.4706C816.963 38.9827 813.597 38.2388 810.078 38.2388C806.406 38.2388 803.193 38.8339 800.287 40.0242C797.38 41.2146 794.32 43 791.107 45.2319V38.09H788.506L766.629 42.5536V45.2319C770.148 46.4222 772.443 47.7613 773.819 49.5467ZM791.413 50.1419C795.544 46.8685 799.675 45.3807 803.499 45.3807C806.712 45.3807 809.619 46.2734 812.22 48.2076C814.821 49.9931 816.81 52.8201 818.339 56.391C819.869 60.1108 820.634 64.5744 820.634 69.782C820.634 75.1384 819.869 79.7509 818.339 83.4706C816.81 87.1903 814.668 90.0173 812.22 91.8028C809.619 93.5883 806.865 94.6298 803.652 94.6298C799.828 94.6298 795.85 92.6955 791.566 88.827V50.1419H791.413Z" fill="#212432"/>
<path d="M680.958 92.9931C678.051 92.9931 675.756 92.5468 674.379 91.8028C673.002 90.9101 672.237 89.2734 672.237 86.744V51.7786C674.532 49.5468 677.286 47.6125 680.346 45.9758C683.406 44.4879 686.159 43.744 688.454 43.744C694.574 43.744 697.787 48.0589 697.787 56.8374V85.7024C697.787 88.5294 697.328 90.6125 696.104 91.8028C695.033 92.9931 692.738 93.4395 689.219 93.2907V96.8616H721.653V93.2907C721.041 93.2907 720.582 93.2907 719.97 93.1419C719.511 93.1419 718.899 93.1419 718.134 93.1419C716.298 93.1419 715.075 92.398 714.31 91.0589C713.545 89.7198 713.086 87.9343 713.086 85.5537V51.9274C719.052 46.571 724.407 43.8928 729.456 43.8928C732.974 43.8928 735.422 45.0831 736.799 47.6125C738.023 50.1419 738.635 53.7128 738.635 58.1765V86.2976C738.635 88.8271 738.023 90.6125 736.952 91.654C735.881 92.6955 734.045 93.1419 731.444 93.1419H729.762V96.7129H762.501V93.1419C760.359 93.1419 758.524 92.9931 757.3 92.5468C756.076 92.1004 755.158 91.5052 754.699 90.6125C754.24 89.7198 753.934 88.5295 753.934 86.8928V57.135C753.934 52.9689 753.169 49.5468 751.639 46.7198C750.109 43.8928 747.814 41.8097 745.06 40.4706C742.154 39.1315 738.941 38.5364 735.116 38.5364C730.985 38.5364 727.008 39.4291 723.183 41.0658C719.358 42.7024 715.533 45.0831 711.709 48.3565C710.791 46.2734 709.261 44.4879 707.425 43.1488C705.589 41.661 703.447 40.6194 701.152 39.8755C698.858 39.1315 696.41 38.6852 693.962 38.6852C690.443 38.6852 686.618 39.4291 682.947 40.917C679.122 42.4049 675.45 44.6367 671.931 47.6125V38.6852H670.096L648.371 45.3807V47.6125C651.89 48.9516 654.185 50.4395 655.255 51.9274C656.326 53.5641 656.785 55.9447 656.785 59.0692V85.8512C656.785 87.6367 656.632 89.1246 656.326 90.3149C656.02 91.5052 655.103 92.2492 654.032 92.6956C652.808 93.1419 651.125 93.4395 648.983 93.4395H648.065V97.0104H681.264V92.9931H680.958Z" fill="#212432"/>
<path d="M594.519 94.481C599.109 97.0104 604.31 98.2007 609.971 98.2007C614.102 98.2007 618.079 97.4568 621.751 95.9689C625.423 94.481 628.636 92.398 631.39 89.7197C634.143 87.0415 636.438 83.7682 637.968 79.8997C639.498 76.1799 640.416 72.1626 640.416 67.8478C640.416 62.3426 639.039 57.2838 636.438 52.6713C633.837 48.0589 630.166 44.6367 625.576 41.9585C620.986 39.4291 615.938 38.09 610.277 38.09C604.616 38.09 599.415 39.4291 594.672 42.1073C589.929 44.7855 586.258 48.3564 583.504 52.9689C580.75 57.5813 579.373 62.789 579.373 68.2942C579.373 74.0969 580.75 79.3045 583.504 83.917C586.105 88.5294 589.776 92.1004 594.519 94.481ZM599.568 47.6125C602.016 43.744 605.228 41.8097 609.512 41.8097C613.949 41.8097 617.314 44.3391 619.915 49.3979C622.363 54.4568 623.587 61.5987 623.587 70.6748C623.587 75.8824 622.975 80.1973 621.904 83.7682C620.833 87.3391 619.303 90.0173 617.314 91.8028C615.326 93.5883 613.337 94.481 611.042 94.481C606.605 94.481 602.933 91.8028 600.18 86.4464C597.426 81.09 596.049 73.7993 596.049 64.5744C596.049 57.135 597.273 51.481 599.568 47.6125Z" fill="#212432"/>
<path d="M939.051 92.9931C936.91 92.8443 935.227 92.6955 934.156 92.5467C932.932 92.2491 932.014 91.654 931.402 90.6124C930.79 89.5709 930.331 88.083 930.331 86.1488V51.4809C933.238 48.8027 935.992 46.8685 938.44 45.6782C940.887 44.3391 943.335 43.7439 945.936 43.7439C948.078 43.7439 949.761 44.1903 951.138 44.9342C952.515 45.8269 953.586 47.0173 954.35 48.5051C955.115 50.1418 955.421 52.0761 955.421 54.3079V86C955.421 88.827 954.809 90.7612 953.433 91.6539C952.056 92.5467 950.067 92.9931 947.16 92.9931V96.564H979.594V92.9931C976.687 92.9931 974.698 92.5467 973.321 91.8027C971.944 91.0588 971.179 89.2733 971.179 86.4463V56.5398C971.179 44.1903 964.754 38.0899 952.056 38.0899C947.619 38.0899 943.794 38.8339 940.581 40.3217C937.369 41.8096 933.85 44.0415 930.178 46.7197V37.9412H927.577L906.312 44.4879V46.5709C909.372 47.4636 911.513 48.8028 912.89 50.5882C914.267 52.3737 914.879 54.7543 914.879 57.5813V86.5951C914.879 89.1245 914.114 90.7612 912.584 91.5052C911.054 92.2491 909.066 92.5467 906.312 92.5467V96.1176H938.899V92.9931H939.051Z" fill="#212432"/>
<path d="M991.22 46.2733C991.985 47.3148 992.597 48.5052 993.362 49.9931C993.974 51.3322 994.586 52.8201 995.198 54.1592L1015.55 100.135L1012.03 109.509C1009.73 115.46 1006.98 118.585 1004.07 118.585C1003.15 118.585 1002.08 118.287 1000.86 117.841C999.787 117.394 998.563 116.799 997.339 116.353C996.115 115.907 995.045 115.609 994.127 115.609C991.985 115.609 990.302 116.204 988.772 117.394C987.242 118.585 986.477 120.073 986.477 121.709C986.477 123.792 987.395 125.429 989.384 126.917C991.22 128.256 993.515 129 996.268 129C1004.38 129 1010.8 122.9 1015.7 110.699L1033.75 65.7647C1034.97 62.7889 1036.2 59.8132 1037.42 57.1349C1038.65 54.4567 1039.72 52.2249 1040.79 50.5882C1041.86 48.9516 1043.08 47.4637 1044.61 46.1246C1046.14 44.7855 1047.98 43.5951 1050.12 42.7024V39.2803H1026.87V42.7024C1031.46 43.5951 1033.6 46.5709 1033.6 51.4809C1033.6 54.4567 1032.99 57.2837 1031.91 59.9619L1023.5 80.0484L1012.33 54.9031C1011.11 51.9273 1010.5 49.5467 1010.5 47.6125C1010.5 45.827 1011.26 44.4879 1012.64 43.8927C1014.17 43.2976 1016.16 42.8512 1019.06 42.7024V39.2803H984.029V42.7024C985.712 42.7024 987.242 43.1488 988.313 43.7439C989.384 44.3391 990.455 45.2318 991.22 46.2733Z" fill="#212432"/>
<path d="M864.848 67.2526C859.952 69.782 856.127 71.8651 853.68 73.5018C851.079 75.1385 849.09 77.0727 847.56 79.1557C846.03 81.2388 845.265 83.7682 845.265 86.8928C845.265 90.3149 846.489 92.9931 849.09 95.225C851.691 97.4568 855.056 98.4983 859.34 98.4983C865.46 98.4983 871.579 95.9689 877.699 90.7613C878.311 93.4395 879.535 95.5225 881.218 96.7129C882.901 98.052 885.195 98.6471 888.102 98.6471C890.703 98.6471 892.845 98.0519 894.681 97.0104C896.517 95.9689 898.505 94.3322 900.8 92.1004L898.352 89.2734C896.976 90.7613 895.905 91.5052 894.987 91.5052C893.457 91.5052 892.692 90.1661 892.692 87.4879V54.1592C892.692 50.7371 891.774 47.9101 889.938 45.3807C888.102 43 885.654 41.2146 882.748 40.0243C879.688 38.8339 876.475 38.2388 872.956 38.2388C868.214 38.2388 863.777 38.9827 859.799 40.3218C855.821 41.6609 852.762 43.4464 850.467 45.6782C848.172 47.9101 847.101 50.1419 847.101 52.3737C847.101 53.8616 847.866 55.2007 849.09 56.391C850.467 57.5814 852.303 58.1765 854.597 58.1765C857.045 58.1765 859.034 57.4325 860.564 55.9446C862.094 54.4568 863.012 52.8201 863.012 50.8858C863.012 49.9931 862.706 48.9516 862.094 47.7613C861.482 46.7197 861.176 45.9758 861.176 45.827C861.176 44.7855 861.941 43.8928 863.318 43C864.695 42.1073 866.531 41.6609 868.979 41.6609C871.732 41.6609 873.874 42.4049 875.251 43.8928C876.628 45.3807 877.393 47.6125 877.393 50.5883V60.5571C873.874 62.6402 869.896 64.7232 864.848 67.2526ZM877.087 86.2976C874.18 89.1246 871.273 90.4637 868.367 90.4637C866.531 90.4637 865.001 89.8686 863.624 88.5295C862.247 87.1904 861.635 85.4049 861.635 83.0243C861.635 79.4533 862.706 76.3287 865.001 73.7993C867.296 71.2699 871.273 68.4429 877.087 65.3184V86.2976Z" fill="#212432"/>
<path d="M494.311 84.6608C498.748 88.9757 503.949 92.5466 510.069 94.9273C516.188 97.3079 522.767 98.647 529.958 98.647C539.29 98.647 547.398 96.8615 554.589 93.2906C561.626 89.7196 567.746 84.3633 572.795 77.2214L568.817 74.9895C565.757 79.0069 562.391 82.429 558.873 85.256C555.354 87.9342 551.529 90.0172 547.704 91.3563C543.88 92.6954 539.749 93.2906 535.618 93.2906C528.887 93.2906 522.767 91.3563 517.412 87.6366C512.058 83.9169 507.927 78.7093 505.02 72.0138C502.113 65.3183 500.584 57.73 500.584 49.1003C500.584 42.9999 501.349 37.1971 502.878 31.6919C504.408 26.1868 506.55 21.7231 509.151 17.8546C511.905 14.1349 515.118 11.1591 518.942 9.07601C522.767 6.99296 527.051 6.10023 531.64 6.10023C535.159 6.10023 538.372 6.69539 541.279 7.73692C544.339 8.77844 547.245 10.4151 549.846 12.647C552.6 14.73 555.201 17.557 557.649 20.8304C560.096 24.1037 562.391 27.8234 564.533 32.1383H568.664V3.12445H563.156C560.861 5.50507 557.802 6.69542 554.283 6.69542C552.906 6.69542 551.682 6.54661 550.611 6.39782C549.54 6.10025 547.551 5.65388 544.492 4.90993C541.432 4.16599 538.831 3.57083 536.689 3.27325C534.547 2.82688 532.099 2.6781 529.652 2.6781C522.92 2.6781 516.647 3.8684 510.681 6.24903C504.714 8.62965 499.513 11.903 494.923 16.2179C490.486 20.5328 486.815 25.7404 484.367 31.6919C481.766 37.6435 480.542 44.1902 480.542 51.1833C480.542 57.5812 481.766 63.8304 484.061 69.6331C486.509 75.1383 489.874 80.1972 494.311 84.6608Z" fill="#212432"/>
<path d="M327.396 72.9065H322.042C317.911 77.6678 314.086 81.5363 310.568 84.3633C307.049 87.1903 303.377 89.4221 299.399 90.91C295.422 92.3979 290.985 93.1418 286.089 93.1418C281.959 93.1418 278.746 92.993 276.451 92.8443C274.156 92.6955 272.32 92.1003 271.096 91.2076C269.872 90.3148 268.954 88.9757 268.495 87.339C268.036 85.5536 267.73 83.0242 267.73 79.8996V51.0345H283.488C288.69 51.0345 292.515 52.2249 295.116 54.7543C297.716 57.1349 299.246 61.0034 299.705 66.3598H303.836V31.692H299.093C298.94 42.256 292.974 47.4636 281.194 47.4636H267.73V18.8961C267.73 16.3667 268.036 14.4325 268.801 12.9446C269.413 11.4567 270.79 10.2664 272.932 9.37364C274.921 8.48091 278.134 8.03455 282.112 8.03455C287.313 8.03455 292.209 8.7785 296.799 10.4152C301.388 12.0519 305.672 14.1349 309.344 16.6643C313.168 19.3425 316.228 22.1695 318.829 25.4428H323.725L315.616 4.46362H235.909V8.03455C240.345 8.33213 243.558 8.62968 245.547 9.07604C247.536 9.52241 248.913 10.564 249.678 11.9031C250.443 13.2422 250.902 15.474 250.902 18.5986V83.4705C250.902 85.9999 250.443 87.9342 249.525 89.2733C248.607 90.6124 247.23 91.6539 245.088 92.2491C242.946 92.8443 239.886 93.1418 235.909 93.2906V96.8615H318.982L327.396 72.9065Z" fill="#212432"/>
<path d="M220.307 92.9931C216.941 92.9931 214.493 92.8443 213.116 92.6955C211.739 92.398 210.822 91.8028 210.057 90.91C209.445 90.0173 209.139 88.3807 209.139 86.1488V54.4568C210.21 53.2664 211.128 52.3737 212.045 51.7786C212.81 51.1834 213.728 50.8858 214.493 50.8858C214.952 50.8858 215.411 51.0346 215.717 51.1834C216.023 51.481 216.482 51.7786 217.094 52.0762C217.553 52.5225 218.012 52.8201 218.471 53.2665C219.236 53.8616 220.154 54.308 221.378 54.6056C222.449 54.9031 223.52 55.0519 224.438 55.0519C226.579 55.0519 228.262 54.1592 229.639 52.5225C231.016 50.8858 231.781 48.8028 231.781 46.4222C231.781 44.0415 231.016 42.1073 229.486 40.6194C227.956 39.1315 225.967 38.2388 223.826 38.2388C221.225 38.2388 218.93 38.9827 217.094 40.4706C215.258 41.9585 212.657 44.6367 209.139 48.3564V38.2388H205.773L184.048 44.9343V47.1661C190.474 49.1004 193.687 52.5225 193.687 57.5813V87.0416C193.687 91.0589 191.086 92.9931 185.884 92.9931H184.048V96.5641H220.307V92.9931Z" fill="#212432"/>
<path d="M143.81 92.9932C139.068 92.8444 136.62 90.9101 136.62 87.3392V74.6921L143.045 68.5918L152.072 84.8098C152.99 86.4465 153.602 87.488 153.908 88.0831C154.214 88.6783 154.367 89.2734 154.367 89.7198C154.367 91.3565 152.837 92.398 149.777 92.8444V96.4153H178.539V92.8444C176.244 92.1004 174.102 90.6125 172.266 88.2319C170.43 86.0001 168.289 82.7267 165.841 78.4118L154.673 57.5814L159.109 52.0762C159.262 51.7786 160.486 50.5883 162.781 48.3565C164.005 47.1662 165.229 46.2734 166.147 45.5295C167.218 44.9343 168.136 44.4879 169.054 44.0416C169.971 43.744 170.889 43.4465 171.654 43.1489C172.419 43.0001 173.031 42.8513 173.49 42.7025V38.9828H144.728V42.7025C147.329 43.0001 149.318 43.5952 150.542 44.6368C151.766 45.6783 152.378 47.0174 152.378 48.5052C152.378 52.5225 147.023 59.3668 136.467 69.3357V1.63672H133.866L112.447 8.62982V11.1592C115.813 12.052 117.955 13.5399 119.179 15.4741C120.403 17.4084 120.862 20.0866 120.862 23.3599V83.4707C120.862 85.7025 120.709 87.3392 120.556 88.5295C120.403 89.571 119.791 90.6126 118.72 91.3565C117.649 92.1004 115.813 92.5468 113.365 92.5468H112.294V96.1177H143.81V92.9932Z" fill="#212432"/>
<path d="M13.7691 11.4567C14.84 12.9445 15.2989 15.1764 15.2989 18.4498V68.4428C15.2989 72.3114 15.7579 75.7335 16.5229 78.5605C17.2878 81.3875 18.8177 84.0657 20.9596 86.5951C27.8441 94.4809 38.5533 98.4982 53.0873 98.4982C59.2069 98.4982 64.5616 97.7543 69.3042 96.4152C74.0469 95.0761 78.0246 92.993 81.5434 90.166C84.9092 87.4878 87.51 84.2145 89.1929 80.346C91.0287 76.4775 91.7937 72.3114 91.7937 67.5501V33.6262C91.7937 28.4186 92.0997 23.9549 92.8646 20.384C93.4766 16.8131 94.8535 13.9861 96.8423 11.7543C98.8312 9.52242 101.891 8.1833 105.716 7.73693V4.166H70.9871V7.73693C75.4238 8.03451 78.7896 8.92724 81.2374 10.7127C83.6853 12.4982 85.3681 15.3252 86.4391 19.1937C87.51 23.0622 87.969 28.4186 87.969 35.2629V65.4671C87.969 71.2698 86.745 76.3286 84.2972 80.4947C81.8494 84.6608 78.4836 87.7854 74.1999 89.7197C69.9162 91.8027 64.8675 92.8442 59.2069 92.8442C53.6993 92.8442 48.9566 91.9515 44.9789 90.166C40.8482 88.3805 37.7884 85.7023 35.4936 82.1314C33.1987 78.5605 32.1278 74.3944 32.1278 69.6331V17.557C32.1278 14.5812 32.5868 12.4982 33.5047 11.0103C34.4226 9.6712 35.7995 8.77844 37.6354 8.33208C39.4713 7.88571 42.0721 7.58817 45.7438 7.43938V3.86841H0V7.43938C4.28371 7.73696 7.34349 8.1833 9.17937 8.48088C11.3212 9.07603 12.6981 9.96876 13.7691 11.4567Z" fill="#212432"/>
<path d="M339.635 48.9515L357.382 72.1626L352.027 78.5605C349.426 81.5363 346.978 83.9169 344.684 86C342.389 87.9342 340.094 89.5709 337.799 90.91C335.504 92.1003 333.515 92.8443 331.527 93.1418V96.7128H359.218V93.1418C357.076 92.8443 355.393 92.2491 354.169 91.2076C352.945 90.1661 352.486 88.9758 352.486 87.3391C352.486 85.7024 352.792 84.5121 353.404 83.4706C354.016 82.429 354.781 81.3876 355.699 80.346L359.83 75.2872L366.255 83.7682C368.091 86.2976 369.009 87.9342 369.009 88.9758C369.009 91.2076 367.173 92.5467 363.501 92.9931V96.564H397.006V92.9931C395.476 92.6955 394.099 92.2491 393.028 91.654C391.957 91.0588 390.886 90.3149 389.968 89.5709C389.051 88.6782 388.133 87.6367 387.368 86.4463C386.45 85.256 385.991 84.5121 385.838 84.3633L370.08 63.3841L376.046 56.5398C378.341 53.8616 380.33 51.6298 382.166 49.8443C383.849 48.0588 385.838 46.5709 387.98 45.2318C390.121 43.8927 392.416 43.1488 395.017 42.7024V39.2803H369.774V42.7024C371.457 42.8512 372.834 43.2976 373.752 44.1903C374.67 45.083 375.129 46.1246 375.129 47.6125C375.129 50.4394 373.752 53.4152 370.998 56.5398L367.785 60.2595L361.206 51.4809C359.524 49.2491 358.759 47.4637 358.759 45.9758C358.759 44.0415 360.442 42.8512 363.654 42.5536V39.1315H330.915V42.5536C332.444 42.8512 333.974 43.4463 335.198 44.0415C336.116 44.7854 337.646 46.4221 339.635 48.9515Z" fill="#212432"/>
<path d="M406.953 49.5467C408.33 51.3322 408.942 53.8616 408.942 57.135V119.18C408.942 120.817 408.636 122.156 408.024 122.9C407.412 123.792 406.647 124.239 405.423 124.536C404.352 124.685 402.516 124.834 400.221 124.983V128.702H435.409V125.132H432.043C429.901 125.132 428.218 124.834 427.147 124.388C425.923 123.941 425.159 123.197 424.853 122.156C424.547 121.114 424.394 119.775 424.394 117.99V95.225C429.136 97.1592 433.726 98.2007 438.469 98.2007C444.435 98.2007 449.943 96.8616 454.838 94.3322C459.734 91.8028 463.559 88.0831 466.313 83.4706C469.067 78.8581 470.443 73.6505 470.443 67.8478C470.443 63.6817 469.678 59.8132 468.149 56.0934C466.619 52.3737 464.63 49.2492 462.182 46.571C459.734 43.8928 456.827 41.9585 453.462 40.4706C450.096 38.9827 446.73 38.2388 443.211 38.2388C439.54 38.2388 436.327 38.8339 433.42 40.0242C430.513 41.2146 427.453 43 424.241 45.2319V38.09H421.64L399.762 42.5536V45.2319C403.281 46.4222 405.576 47.7613 406.953 49.5467ZM424.547 50.1419C428.677 46.8685 432.808 45.3807 436.633 45.3807C439.846 45.3807 442.752 46.2734 445.353 48.2076C447.954 49.9931 449.943 52.8201 451.473 56.391C453.003 60.1108 453.768 64.5744 453.768 69.782C453.768 75.1384 453.003 79.7509 451.473 83.4706C449.943 87.1903 447.801 90.0173 445.353 91.8028C442.752 93.5883 439.999 94.6298 436.786 94.6298C432.961 94.6298 428.983 92.6955 424.7 88.827V50.1419H424.547Z" fill="#212432"/>
</svg>
