<svg width="42" height="44" viewBox="0 0 42 44" fill="none" xmlns="http://www.w3.org/2000/svg">
<path d="M32.5622 33.8846H14.5113C14.1528 33.8846 13.8621 34.1756 13.8621 34.5341C13.8621 34.8927 14.1528 35.1834 14.5113 35.1834H32.5619C32.9208 35.1834 33.2115 34.8927 33.2115 34.5341C33.2115 34.1756 32.9208 33.8846 32.5622 33.8846Z" fill="#2657D8"/>
<path d="M32.5622 29.3231H14.5113C14.1528 29.3231 13.8621 29.6139 13.8621 29.9724C13.8621 30.3312 14.1528 30.6219 14.5113 30.6219H32.5619C32.9208 30.6219 33.2115 30.3312 33.2115 29.9724C33.2115 29.6139 32.9208 29.3231 32.5622 29.3231Z" fill="#2657D8"/>
<path d="M13.8621 25.4083C13.8621 25.7672 14.1528 26.0579 14.5113 26.0579H25.9978C26.3566 26.0579 26.6473 25.7672 26.6473 25.4083C26.6473 25.0498 26.3566 24.7591 25.9978 24.7591H14.5113C14.1528 24.7591 13.8621 25.0498 13.8621 25.4083Z" fill="#2657D8"/>
<path d="M3.625 12.4999C3.625 12.7762 3.96607 13 4.3867 13H17.8629C18.2839 13 18.625 12.7762 18.625 12.4999C18.625 12.2238 18.2839 12 17.8629 12H4.3867C3.96607 12 3.625 12.2238 3.625 12.4999Z" fill="#2657D8"/>
<path d="M3.625 16.4999C3.625 16.7762 3.96607 17 4.3867 17H17.8629C18.2839 17 18.625 16.7762 18.625 16.4999C18.625 16.2238 18.2839 16 17.8629 16H4.3867C3.96607 16 3.625 16.2238 3.625 16.4999Z" fill="#2657D8"/>
<path d="M39.4164 8.51923L38.2455 7.24829V2.70267C38.2455 1.21252 37.0297 0 35.5348 0H6.48761C4.99277 0 3.77689 1.21252 3.77689 2.70267V7.83005H2.5892C1.1615 7.83005 0 8.99222 0 10.4206V18.2822C0 19.7106 1.1615 20.8727 2.5892 20.8727H3.77689V38.9884C3.77689 40.4786 4.99277 41.6911 6.48761 41.6911H7.97137C8.13116 42.9906 9.2413 44 10.5837 44H38.5295C39.9828 44 41.1647 42.8194 41.1647 41.3682V13.3163C41.1647 11.0205 41.0956 10.3447 39.4164 8.51923ZM39.8391 11.9799H34.9742C34.2374 11.9799 33.6378 11.382 33.6378 10.6475L33.6422 5.00015C34.4962 5.0636 34.7241 5.31604 35.4727 6.14856C35.5969 6.28687 35.7325 6.43726 35.8833 6.60107L37.1247 7.94855C37.129 7.95325 37.1334 7.95828 37.1381 7.96298L38.4607 9.39874C39.492 10.52 39.7662 10.9906 39.8391 11.9799ZM5.07568 2.70267C5.07568 1.92856 5.70914 1.2988 6.48761 1.2988H35.5348C36.3133 1.2988 36.9467 1.92856 36.9467 2.70267V5.83838L36.8387 5.72089C36.6913 5.56143 36.5597 5.41473 36.4388 5.28012C35.3713 4.09311 34.9047 3.68256 32.994 3.68256H10.5837C9.13187 3.68256 7.9509 4.86319 7.9509 6.31439V7.83005H5.07568V2.70267ZM39.8659 41.3682C39.8659 42.103 39.2664 42.7012 38.5295 42.7012H10.5837C9.84824 42.7012 9.24969 42.1033 9.24969 41.3682V31.9573C9.24969 31.5988 8.95898 31.3081 8.60013 31.3081C8.24161 31.3081 7.9509 31.5988 7.9509 31.9573V40.3923H6.48761C5.70914 40.3923 5.07568 39.7625 5.07568 38.9888V20.8727H7.9509V28.9838C7.9509 29.3423 8.24161 29.633 8.60013 29.633C8.95898 29.633 9.24969 29.3423 9.24969 28.9838V20.8727H12.6207C12.9792 20.8727 13.27 20.582 13.27 20.2232C13.27 19.8647 12.9792 19.5739 12.6207 19.5739H2.5892C1.87753 19.5739 1.2988 18.9945 1.2988 18.2822V10.4206C1.2988 9.70825 1.87753 9.12885 2.5892 9.12885H19.6918C20.4044 9.12885 20.9845 9.70825 20.9845 10.4206V18.2822C20.9845 18.9945 20.4044 19.5739 19.6918 19.5739H15.596C15.2371 19.5739 14.9464 19.8647 14.9464 20.2232C14.9464 20.582 15.2371 20.8727 15.596 20.8727H19.6918C21.1208 20.8727 22.2833 19.7106 22.2833 18.2822V10.4206C22.2833 8.99222 21.1208 7.83005 19.6918 7.83005H9.24969V6.31439C9.24969 5.57922 9.84824 4.98135 10.5837 4.98135H32.3434L32.339 10.6472C32.339 12.0984 33.5213 13.279 34.9742 13.279H39.8659V41.3682Z" fill="#2657D8"/>
</svg>
