<svg width="54" height="44" viewBox="0 0 54 44" fill="none" xmlns="http://www.w3.org/2000/svg">
<path d="M30.4454 36.1973C36.4671 36.1973 41.366 31.3596 41.366 25.4128C41.366 24.1722 41.1542 22.9545 40.7373 21.7941C40.591 21.3868 40.1383 21.1738 39.7259 21.3188C39.3139 21.4634 39.0988 21.911 39.2451 22.3183C39.6015 23.31 39.7823 24.3514 39.7823 25.4128C39.7823 30.4961 35.5941 34.6321 30.4454 34.6321C25.2968 34.6321 21.1086 30.4961 21.1086 25.4128C21.1086 20.3295 25.2968 16.1936 30.4454 16.1936C33.4138 16.1936 36.0481 17.3763 37.4921 19.3578C37.7479 19.7084 38.2427 19.7878 38.5974 19.5353C38.9522 19.2828 39.0329 18.7937 38.7771 18.4426C37.0364 16.0543 33.9218 14.628 30.4454 14.628C24.4238 14.628 19.5249 19.4661 19.5249 25.4128C19.5249 31.3596 24.4238 36.1973 30.4454 36.1973Z" fill="#2657D8"/>
<path d="M49.5699 8.47556H43.7345L40.7027 1.53668C40.4666 0.999472 40.027 0 38.8941 0H23.761C22.6189 0 22.1859 1.00273 21.9548 1.5379L18.9205 8.47556H14.5914V6.53078C14.5914 5.51135 13.7521 4.68213 12.7201 4.68213H6.36726C5.33565 4.68213 4.49643 5.51135 4.49643 6.53078V8.47556H4.42722C1.98578 8.47556 0 10.4374 0 12.8481V39.6213C0 42.034 1.98578 43.9972 4.42722 43.9972L31.1001 44C31.5372 44 31.8919 43.6493 31.8919 43.2172C31.8919 42.7851 31.5376 42.4344 31.1001 42.4344L4.42722 42.4316C2.90945 42.4316 1.66566 41.2504 1.58739 39.7696H17.0163C19.0705 39.7696 20.9397 38.6141 21.8753 36.8603C24.2216 38.6422 27.1747 39.6926 30.4454 39.6926C34.4862 39.6926 38.1443 38.0476 40.7711 35.401L42.405 36.4017C42.8722 36.688 43.3909 36.8245 43.9038 36.8245C44.8576 36.8245 45.7903 36.352 46.3292 35.4943C46.7305 34.8565 46.8553 34.1006 46.6806 33.3658C46.5064 32.6319 46.0544 32.0104 45.4097 31.617L43.8869 30.6851C44.5457 29.0531 44.9091 27.2741 44.9091 25.4128C44.9091 17.5372 38.4207 11.1298 30.4459 11.1298C26.8599 11.1298 23.6555 12.46 21.2145 14.6398C20.1754 13.4163 18.6548 12.7036 17.0163 12.7036H1.58739C1.66402 11.2227 2.90863 10.0416 4.42722 10.0416H19.4409C19.7569 10.0416 20.0424 9.85584 20.1676 9.56952L23.4099 2.15616C23.4668 2.02379 23.6407 1.62139 23.7399 1.56722C23.7399 1.56722 23.7461 1.566 23.761 1.566H38.8941C38.9056 1.566 38.9114 1.56682 38.9118 1.56641C39.0135 1.62221 39.1853 2.0132 39.2496 2.15901L42.487 9.56911C42.6123 9.85584 42.8982 10.0416 43.2142 10.0416H49.5699C51.1396 10.0416 52.4163 11.3009 52.4163 12.8486V39.6217C52.4163 41.171 51.1396 42.432 49.5699 42.432H34.6729C34.2353 42.432 33.881 42.7822 33.881 43.2148C33.881 43.6469 34.2353 43.9976 34.6729 43.9976H49.5699C52.0126 43.9976 54 42.0345 54 39.6217V12.8481C54 10.4374 52.0126 8.47556 49.5699 8.47556ZM44.577 32.9484C44.8617 33.1223 45.0615 33.3976 45.139 33.7238C45.2164 34.0505 45.1616 34.3857 44.9837 34.6683C44.6153 35.2544 43.8334 35.4352 43.2393 35.0711L41.8369 34.2126C42.3601 33.554 42.822 32.8535 43.2183 32.1171L44.577 32.9484ZM30.4454 12.6954C37.5473 12.6954 43.325 18.4002 43.325 25.4128C43.325 32.4234 37.5473 38.1274 30.4454 38.1274C23.3453 38.1274 17.5688 32.4234 17.5688 25.4128C17.5688 18.4002 23.3453 12.6954 30.4454 12.6954ZM10.3343 14.2688H17.0163C18.1534 14.2688 19.2122 14.7522 19.9509 15.5863C17.3883 18.2503 15.9855 21.7135 15.9855 25.4128C15.9855 29.3895 17.6602 33.1716 20.5998 35.8735C19.988 37.2664 18.5769 38.204 17.0163 38.204H10.3343V14.2688ZM8.75061 14.2688V38.204H1.58368V14.2688H8.75061ZM13.0077 8.47556H6.08011V6.53078C6.08011 6.37724 6.21153 6.24772 6.36726 6.24772H12.7201C12.8758 6.24772 13.0077 6.37724 13.0077 6.53078V8.47556Z" fill="#2657D8"/>
<path d="M50.9418 14.5754C50.9418 13.0041 49.6478 11.7261 48.0571 11.7261C46.4664 11.7261 45.1728 13.0041 45.1728 14.5754C45.1728 16.1463 46.4664 17.4248 48.0571 17.4248C49.6474 17.4248 50.9418 16.1463 50.9418 14.5754ZM46.7564 14.5754C46.7564 13.8676 47.3398 13.2917 48.0571 13.2917C48.7744 13.2917 49.3581 13.8676 49.3581 14.5754C49.3581 15.2833 48.7744 15.8592 48.0571 15.8592C47.3398 15.8592 46.7564 15.2833 46.7564 14.5754Z" fill="#2657D8"/>
<path d="M36.4012 3.2269H25.8329C24.8615 3.2269 24.5092 4.13677 24.3399 4.57419L23.5406 6.64156C23.3532 7.10953 23.3841 7.56284 23.6272 7.9184C23.8645 8.26499 24.2616 8.45601 24.7449 8.45601H37.4893C37.973 8.45601 38.3697 8.26499 38.607 7.9184C38.8505 7.56284 38.881 7.10994 38.6935 6.64197L37.8943 4.57419C37.725 4.13718 37.3731 3.2269 36.4012 3.2269ZM25.14 6.89041L25.8193 5.13339C25.8502 5.05357 25.9129 4.89147 25.9656 4.7925H36.2686C36.3213 4.89147 36.3839 5.05357 36.4148 5.13339L37.0942 6.89041H25.14Z" fill="#2657D8"/>
<path d="M46.6609 20.6602H49.4533C49.8904 20.6602 50.2451 20.3096 50.2451 19.8774C50.2451 19.4449 49.8904 19.0946 49.4533 19.0946H46.6609C46.2237 19.0946 45.869 19.4449 45.869 19.8774C45.869 20.3096 46.2237 20.6602 46.6609 20.6602Z" fill="#2657D8"/>
</svg>
