<svg width="47" height="47" viewBox="0 0 47 47" fill="none" xmlns="http://www.w3.org/2000/svg">
<path d="M46.9913 17.1038C47.0528 15.4275 46.7868 13.7554 46.2081 12.1812C46.023 11.7206 45.5671 11.4275 45.0716 11.4505C44.5761 11.4734 44.1493 11.8074 44.0074 12.2831C43.8515 13.0585 43.1429 13.5963 42.3548 13.5372C41.9241 13.5372 41.65 13.4353 41.5717 13.2472C41.2897 12.7769 41.5717 11.5384 42.2217 10.2999C43.7254 7.4937 43.3965 5.22052 41.2584 3.55875C40.0914 2.68083 38.5407 1.61478 37.7732 0.486033C37.5472 0.180334 37.1898 0 36.8099 0C36.4299 0 36.0725 0.180334 35.8465 0.486033C35.0634 1.62262 33.497 2.68867 32.3848 3.55875C30.687 4.74334 30.0364 6.94759 30.8185 8.86545C24.7723 8.54407 16.7211 8.30107 10.7375 9.56308C8.72176 9.91876 7.11111 11.4414 6.64144 13.4353L5.404 19.7767C4.38586 18.6872 3.28156 18.7812 2.34957 18.7812C1.05194 18.7812 0 19.834 0 21.1328V21.9166C0 23.2154 1.05194 24.2682 2.34957 24.2682H4.21356C0.885003 30.931 2.14594 28.3913 1.71518 29.4573C1.50372 30.2177 1.56638 29.7552 1.56638 39.9453C1.56973 40.502 1.86784 41.0152 2.34957 41.2935V44.6484C2.34957 45.9472 3.4015 47 4.69913 47H8.61508C9.91271 47 10.9646 45.9472 10.9646 44.6484V41.513H36.0267V44.6484C36.0267 45.9472 37.0786 47 38.3762 47H42.2922C43.5898 47 44.6418 45.9472 44.6418 44.6484V41.2935C45.1235 41.0152 45.4216 40.502 45.4249 39.9453V30.492C45.4249 29.2849 45.1508 29.0184 42.2922 23.2962C45.0098 22.2067 46.9913 20.1843 46.9913 17.1038ZM8.17649 13.7332C8.52808 12.3566 9.66417 11.3212 11.0665 11.0994C13.0793 10.6683 16.8777 10.1588 23.4957 10.1588C25.4615 10.1588 29.1894 10.3469 31.5077 10.4802C32.1029 11.6481 32.3457 12.8318 32.0716 13.2472C31.9619 13.4353 31.6878 13.5372 31.2884 13.5372C30.5003 13.5963 29.7917 13.0585 29.6359 12.2831C29.5187 11.8883 29.2012 11.5853 28.8016 11.4869C28.402 11.3886 27.9803 11.5096 27.6936 11.8049C23.1511 11.6403 15.9457 11.6716 11.4894 12.5888C10.6513 12.7183 9.97076 13.3348 9.75853 14.1565L8.01985 22.7005H6.45347L8.17649 13.7332ZM34.5308 18.2874C35.2912 18.5325 36.124 18.3742 36.7416 17.867C37.3592 17.3598 37.677 16.5733 37.5852 15.779C40.3577 17.4251 39.0498 22.7005 36.802 22.7005C35.1495 22.7005 34.1627 19.8551 34.5308 18.2874ZM3.13275 39.9453V30.539H43.8586V39.9453H3.13275ZM3.61833 28.9713L5.9679 24.2682H41.0234L43.373 28.9713H3.61833ZM26.6284 16.0299L24.224 22.7005H19.6267L23.0492 13.2942C24.1927 13.2942 25.2735 13.2942 27.0278 13.3569C26.807 14.2326 26.6732 15.1279 26.6284 16.0299ZM17.9585 22.7005H9.61756L11.2623 14.47C11.371 14.2816 11.563 14.1563 11.7792 14.133C14.9486 13.5687 18.1619 13.288 21.381 13.2942L17.9585 22.7005ZM25.8922 22.7005L27.0748 19.4475C27.683 20.8473 28.753 21.9957 30.1058 22.7005H25.8922ZM1.56638 21.9166V21.1328C1.56638 20.6999 1.91702 20.3489 2.34957 20.3489H3.13275C3.99784 20.3489 4.69913 21.0508 4.69913 21.9166V22.7005H2.34957C1.91702 22.7005 1.56638 22.3495 1.56638 21.9166ZM9.39826 44.6484C9.39826 45.0813 9.04762 45.4323 8.61508 45.4323H4.69913C4.26659 45.4323 3.91594 45.0813 3.91594 44.6484V41.513H9.39826V44.6484ZM43.0754 44.6484C43.0754 45.0813 42.7247 45.4323 42.2922 45.4323H38.3762C37.9437 45.4323 37.5931 45.0813 37.5931 44.6484V41.513H43.0754V44.6484ZM39.7938 22.4026C40.4225 21.3349 40.745 20.1144 40.7258 18.8753C40.8553 16.8841 39.7516 15.0171 37.9455 14.1721C37.4657 13.9624 36.909 14.0377 36.5021 14.3675C36.0952 14.6973 35.9058 15.2265 36.011 15.7399C36.1363 16.4296 35.5489 17.0019 34.9772 16.7667C34.6074 16.6041 34.1853 16.6101 33.8202 16.783C33.4551 16.9559 33.1829 17.2788 33.0741 17.6681C32.7139 19.2781 32.9948 20.9652 33.8572 22.3713C30.7245 21.7285 28.2261 20.0197 28.2261 17.0724C28.209 15.9281 28.3299 14.7858 28.5864 13.6705C29.1779 14.5812 30.2039 15.114 31.2884 15.0736C32.1252 15.1467 32.9374 14.7672 33.4187 14.0781C34.2723 12.6515 33.2699 10.4645 32.7999 9.58659C30.4034 5.0951 34.3272 4.88346 36.8099 1.83426C39.2926 4.8913 43.2164 5.0951 40.8198 9.58659C40.3499 10.4645 39.3474 12.6515 40.2011 14.0781C40.6747 14.7984 41.5042 15.2015 42.3627 15.1284C43.4472 15.1688 44.4732 14.6361 45.0647 13.7253C45.3217 14.8326 45.4427 15.9671 45.4249 17.1038C45.4249 20.0589 42.8952 21.7599 39.7938 22.4026Z" fill="#2657D8"/>
<path d="M13.2203 33.2904C13.0445 32.5941 12.4185 32.1064 11.7009 32.1068H6.26557C5.7824 32.1066 5.32616 32.3295 5.0292 32.711C4.73224 33.0924 4.62781 33.5897 4.74618 34.0586L5.13778 35.6263C5.31358 36.3226 5.93961 36.8103 6.65716 36.8099H12.0925C12.5757 36.8101 13.0319 36.5872 13.3289 36.2057C13.6258 35.8242 13.7303 35.327 13.6119 34.8581L13.2203 33.2904ZM6.65716 35.2422L6.26557 33.6745H11.7009L12.0925 35.2422H6.65716Z" fill="#2657D8"/>
<path d="M40.7261 32.1068H35.2908C34.5732 32.1064 33.9472 32.5941 33.7714 33.2904L33.3798 34.8581C33.2614 35.327 33.3658 35.8242 33.6628 36.2057C33.9598 36.5872 34.416 36.8101 34.8992 36.8099H40.3345C41.052 36.8103 41.6781 36.3226 41.8539 35.6263L42.2455 34.0586C42.3638 33.5897 42.2594 33.0924 41.9625 32.711C41.6655 32.3295 41.2093 32.1066 40.7261 32.1068ZM40.3345 35.2422H34.8992L35.2908 33.6745H40.7261L40.3345 35.2422Z" fill="#2657D8"/>
<path d="M30.325 32.1068H16.6662C16.183 32.1065 15.7268 32.3295 15.4299 32.7109C15.1329 33.0924 15.0285 33.5897 15.1468 34.0586L15.5384 35.6263C15.7142 36.3225 16.3403 36.8102 17.0578 36.8099H29.9334C30.651 36.8102 31.277 36.3225 31.4528 35.6263C31.8287 34.1134 32.1499 33.4707 31.5625 32.7103C31.2651 32.3288 30.8085 32.106 30.325 32.1068ZM29.9334 35.2422H17.0578L16.6662 33.6745H30.325L29.9334 35.2422Z" fill="#2657D8"/>
</svg>
