<svg width="53" height="53" viewBox="0 0 53 53" fill="none" xmlns="http://www.w3.org/2000/svg">
<path d="M22.746 16.2657L21.51 17.5018L22.128 18.1199V30.5091L21.51 31.1272L22.746 32.3633L23.6201 31.4891C23.7841 31.3252 23.8762 31.1029 23.8763 30.871V17.758C23.8762 17.5261 23.7841 17.3038 23.6201 17.1399L22.746 16.2657Z" fill="#2657D8"/>
<path d="M31.4874 17.5018L30.2514 16.2657L29.3772 17.1399C29.2133 17.3038 29.1211 17.5261 29.1211 17.758V30.871C29.1211 31.1029 29.2133 31.3252 29.3772 31.4891L30.2514 32.3633L31.4874 31.1272L30.8694 30.5091V18.1199L31.4874 17.5018Z" fill="#2657D8"/>
<path d="M52.7414 34.2L50.2685 31.7269C50.1134 31.5721 49.9059 31.4812 49.6871 31.4721C49.4682 31.4631 49.2539 31.5365 49.0866 31.6779L42.77 37.0228C41.8003 36.9231 40.8219 37.0947 39.9439 37.5185L34.366 29.7162V24.1396L40.0978 15.5462C40.7686 15.8507 41.4966 16.0087 42.2333 16.0095C42.4081 16.0095 42.583 15.9789 42.7578 15.9623L49.0971 21.316C49.2645 21.4573 49.4789 21.5306 49.6977 21.5213C49.9166 21.5121 50.124 21.421 50.2789 21.2661L52.744 18.8009C52.8989 18.6459 52.99 18.4385 52.9992 18.2196C53.0084 18.0007 52.9352 17.7864 52.7939 17.619L47.4528 11.2932C47.535 10.5185 47.4429 9.73521 47.1832 9.00072C46.9235 8.26623 46.5028 7.59914 45.9519 7.0483C45.401 6.49747 44.7339 6.07684 43.9994 5.81723C43.265 5.55763 42.4817 5.46561 41.7071 5.54793L35.3756 0.209164C35.2082 0.0678628 34.9939 -0.00542848 34.775 0.00379957C34.5561 0.0130276 34.3487 0.104102 34.1938 0.258994L31.7287 2.72163C31.5738 2.87656 31.4827 3.084 31.4735 3.30288C31.4643 3.52177 31.5376 3.73614 31.6788 3.90355L37.0321 10.2424C36.9445 11.0651 37.0536 11.8969 37.3503 12.6692L34.116 14.6117C33.8257 13.7478 33.2721 12.9965 32.5331 12.4633C31.794 11.93 30.9066 11.6416 29.9952 11.6385H23.0021C22.0907 11.6414 21.2031 11.9296 20.4639 12.4627C19.7247 12.9957 19.171 13.7469 18.8805 14.6108L15.6461 12.6675C15.9433 11.895 16.0527 11.0629 15.9652 10.2398L21.3211 3.90967C21.4627 3.74231 21.5363 3.52781 21.5273 3.30873C21.5182 3.08964 21.4271 2.88196 21.2721 2.72687L18.7992 0.255497C18.6441 0.10073 18.4366 0.00981564 18.2178 0.00074956C17.9989 -0.00831652 17.7846 0.0651268 17.6173 0.206541L11.3007 5.55143C10.5254 5.46843 9.74133 5.5601 9.00606 5.8197C8.27078 6.0793 7.60295 6.50025 7.05159 7.05165C6.50022 7.60306 6.0793 8.27093 5.81971 9.00625C5.56013 9.74158 5.46847 10.5257 5.55146 11.3011L0.206928 17.6172C0.0652721 17.7846 -0.00831886 17.9991 0.000748407 18.2182C0.00981567 18.4372 0.100879 18.6449 0.25588 18.8L2.72884 21.2731C2.88388 21.4279 3.09136 21.5188 3.31023 21.5279C3.5291 21.5369 3.74339 21.4635 3.91069 21.3221L10.2395 15.965C10.4143 15.9824 10.5892 16.013 10.764 16.013C11.4994 16.0125 12.2263 15.8551 12.896 15.5515L18.6313 24.1396V29.7136L13.0516 37.5185C12.1737 37.0925 11.1946 36.919 10.2238 37.0176L3.91069 31.6779C3.74339 31.5365 3.5291 31.4631 3.31023 31.4721C3.09136 31.4812 2.88388 31.5721 2.72884 31.7269L0.25588 34.2C0.100879 34.3551 0.00981567 34.5628 0.000748407 34.7818C-0.00831886 35.0009 0.0652721 35.2154 0.206928 35.3828L5.55146 41.6989C5.47444 42.4291 5.55193 43.1674 5.7789 43.8657C6.00587 44.5639 6.37725 45.2066 6.86888 45.752C7.36051 46.2973 7.96139 46.7331 8.63247 47.031C9.30355 47.3288 10.0298 47.4821 10.764 47.4809C10.9388 47.4809 11.1137 47.4503 11.2885 47.4328L17.6191 52.79C17.7864 52.9314 18.0007 53.0048 18.2195 52.9958C18.4384 52.9867 18.6459 52.8958 18.8009 52.741L21.2739 50.2679C21.4289 50.1128 21.5199 49.9051 21.529 49.686C21.5381 49.4669 21.4645 49.2524 21.3228 49.0851L15.9652 42.7602C16.0537 41.9363 15.9446 41.1032 15.647 40.3299L18.9443 38.349L19.5317 40.7015C19.5794 40.8902 19.6887 41.0576 19.8423 41.1771C19.9959 41.2967 20.185 41.3616 20.3796 41.3615H32.6177C32.8126 41.3615 33.0018 41.2964 33.1555 41.1764C33.3091 41.0565 33.4183 40.8888 33.4656 40.6997L34.053 38.3472L37.3521 40.3299C37.0496 41.1063 36.9361 41.9435 37.0208 42.7724L31.6762 49.0886C31.5346 49.2559 31.461 49.4704 31.47 49.6895C31.4791 49.9086 31.5702 50.1163 31.7252 50.2714L34.1981 52.7445C34.3532 52.8993 34.5607 52.9902 34.7795 52.9992C34.9984 53.0083 35.2127 52.9349 35.38 52.7935L41.7088 47.4363C41.8836 47.4538 42.0585 47.4844 42.2333 47.4844C42.968 47.4859 43.6947 47.3327 44.3663 47.0348C45.0379 46.7368 45.6391 46.3007 46.131 45.755C46.6229 45.2092 46.9943 44.566 47.2212 43.8671C47.448 43.1683 47.5252 42.4296 47.4476 41.6989L52.7921 35.3828C52.9336 35.2152 53.0068 35.0006 52.9974 34.7815C52.9881 34.5624 52.8967 34.3549 52.7414 34.2ZM12.6967 13.6763C12.5659 13.7583 12.4298 13.8316 12.2894 13.8957L12.6871 12.6876L13.89 12.2863C13.8436 12.3816 13.8025 12.4804 13.751 12.5722C13.4901 13.0174 13.1273 13.3943 12.6924 13.6719L12.6967 13.6763ZM9.24473 7.61718L8.84088 8.84106L7.61707 9.24844C7.95355 8.53202 8.52909 7.95521 9.24473 7.61718ZM3.39582 19.4679L2.06099 18.133L8.18002 10.8981L9.80157 10.3578C9.93029 10.3148 10.0472 10.2424 10.1431 10.1463C10.239 10.0503 10.3112 9.93323 10.354 9.80444L10.8951 8.18191L18.1296 2.06248L19.4644 3.39739L13.3454 10.6323L11.7238 11.1726C11.5951 11.2156 11.4782 11.288 11.3823 11.384C11.2864 11.4801 11.2142 11.5971 11.1714 11.7259L10.6303 13.3485L3.39582 19.4679ZM14.3576 14.5837C14.397 14.547 14.438 14.5155 14.4765 14.4771C14.5762 14.3774 14.6592 14.2734 14.7475 14.1711L18.6313 16.5043V20.9925L14.3576 14.5837ZM18.6313 36.4957L14.7475 38.8263C14.6601 38.7257 14.5788 38.6235 14.4852 38.5256L18.6313 32.7226V36.4957ZM13.2405 39.7591C13.4454 39.9616 13.6218 40.1909 13.765 40.4409C13.8165 40.5284 13.8524 40.6158 13.8952 40.7102L12.6871 40.3124L12.2841 39.106C12.4706 39.193 12.649 39.2963 12.8174 39.4146C12.9698 39.5146 13.1116 39.6301 13.2405 39.7591ZM7.61707 43.7559L8.84088 44.1633L9.24911 45.3872C8.53182 45.05 7.95465 44.4731 7.61707 43.7559ZM18.1339 50.9393L10.8995 44.8198L10.3567 43.1973C10.3138 43.0685 10.2416 42.9515 10.1457 42.8554C10.0498 42.7594 9.93291 42.687 9.80419 42.6439L8.18265 42.1037L2.06362 34.8688L3.39844 33.5339L10.6329 39.6533L11.174 41.2758C11.2168 41.4046 11.289 41.5217 11.3849 41.6177C11.4808 41.7138 11.5977 41.7862 11.7264 41.8292L13.348 42.3694L19.467 49.6044L18.1339 50.9393ZM39.7568 39.7591C40.0354 39.482 40.3591 39.2544 40.714 39.0859L40.3102 40.3124L39.0864 40.7198C39.2538 40.3639 39.4805 40.039 39.7568 39.7591ZM34.366 16.5043L38.2498 14.1737C38.3372 14.276 38.4246 14.3809 38.5217 14.4806C38.5601 14.519 38.6003 14.5505 38.6397 14.5863L34.366 20.9925V16.5043ZM39.7568 13.2409C39.5519 13.0384 39.3755 12.8091 39.2324 12.5591C39.1817 12.4716 39.1449 12.3842 39.1039 12.2968L40.3102 12.6876L40.7035 13.8896C40.5563 13.8226 40.4141 13.7451 40.2778 13.6579C40.0892 13.5388 39.9144 13.3989 39.7568 13.2409ZM45.3802 9.24057L44.1564 8.84106L43.7552 7.61718C44.1081 7.78617 44.4301 8.01311 44.708 8.28856C44.9842 8.56568 45.2115 8.88757 45.3802 9.24057ZM34.8616 2.06335L42.1013 8.17754L42.6354 9.80269C42.6782 9.93286 42.7509 10.0512 42.8478 10.148C42.9447 10.2449 43.063 10.3177 43.1931 10.3604L44.8199 10.8954L50.9337 18.1347L49.605 19.4635L42.3662 13.352L41.9903 12.2033C41.984 12.1769 41.9765 12.151 41.9676 12.1255L41.8277 11.7146C41.784 11.5866 41.7112 11.4704 41.6151 11.3753C41.5189 11.2802 41.402 11.2087 41.2735 11.1664L39.6467 10.6314L33.5329 3.39214L34.8616 2.06335ZM23.2477 39.6131L23.6848 37.8647H29.3125L29.7496 39.6131H23.2477ZM32.6177 36.8829L31.935 39.6131H31.5512L30.8432 36.778C30.7958 36.589 30.6866 36.4212 30.533 36.3013C30.3794 36.1814 30.1901 36.1163 29.9952 36.1163H23.0021C22.8072 36.1163 22.6179 36.1814 22.4643 36.3013C22.3107 36.4212 22.2015 36.589 22.1541 36.778L21.4461 39.6131H21.0623L20.3796 36.8829V16.0095C20.3796 15.314 20.6559 14.6469 21.1477 14.1551C21.6395 13.6632 22.3065 13.3869 23.0021 13.3869H29.9952C30.6908 13.3869 31.3578 13.6632 31.8496 14.1551C32.3414 14.6469 32.6177 15.314 32.6177 16.0095V36.8829ZM34.366 36.4957V32.7226L38.5164 38.5282C38.4211 38.6235 38.3416 38.7275 38.2542 38.8289L34.366 36.4957ZM43.7526 45.3828L44.1608 44.1589L45.3846 43.7516C45.047 44.4687 44.4698 45.0456 43.7526 45.3828ZM44.8147 42.0993L43.1931 42.6396C43.0644 42.6826 42.9475 42.755 42.8516 42.851C42.7557 42.9471 42.6835 43.0641 42.6407 43.1929L42.0996 44.8155L34.8651 50.9349L33.5303 49.6L39.6493 42.3651L41.2709 41.8248C41.3996 41.7818 41.5165 41.7094 41.6124 41.6133C41.7083 41.5173 41.7805 41.4002 41.8233 41.2714L42.3644 39.6489L49.5989 33.5295L50.9337 34.8644L44.8147 42.0993Z" fill="#2657D8"/>
</svg>
