<svg width="59" height="45" viewBox="0 0 59 45" fill="none" xmlns="http://www.w3.org/2000/svg">
<path d="M23.2958 16.3829C23.7711 16.3829 24.1569 15.9979 24.1569 15.5236C24.1569 15.0492 23.7711 14.6642 23.2958 14.6642C22.8196 14.6642 22.4348 15.0492 22.4348 15.5236C22.4348 15.9979 22.8196 16.3829 23.2958 16.3829Z" fill="#2657D8"/>
<path d="M14.6852 16.3829C15.1605 16.3829 15.5463 15.9979 15.5463 15.5236C15.5463 15.0492 15.1605 14.6642 14.6852 14.6642C14.209 14.6642 13.8242 15.0492 13.8242 15.5236C13.8242 15.9979 14.209 16.3829 14.6852 16.3829Z" fill="#2657D8"/>
<path d="M16.6885 22.2897C17.4113 22.6298 18.1859 22.8023 18.9901 22.8023C19.7769 22.8023 20.5363 22.6368 21.2477 22.3105C21.6799 22.1121 21.869 21.6019 21.6705 21.1705C21.4717 20.7395 20.9605 20.5505 20.5283 20.7489C20.0443 20.9708 19.5266 21.0836 18.9901 21.0836C18.4416 21.0836 17.9142 20.9664 17.4228 20.7351C16.9926 20.5327 16.4793 20.7166 16.2768 21.146C16.074 21.5754 16.2583 22.0873 16.6885 22.2897Z" fill="#2657D8"/>
<path d="M37.9803 35.785C37.9803 31.0594 32.588 27.3533 27.9658 27.1778L25.6077 25.0632C28.4798 22.9718 30.2231 19.6109 30.2231 16.0391V10.3672C30.2231 5.15489 25.9605 0.914062 20.7212 0.914062H17.277C12.0447 0.914062 7.83562 5.13978 7.83562 10.3672V16.0391C7.83562 19.6048 9.55571 22.9594 12.3905 25.0471L10.0145 27.1778C5.40246 27.353 0 31.0497 0 35.785V44.0548C0 44.5294 0.385457 44.9142 0.861057 44.9142H37.1193C37.5949 44.9142 37.9803 44.5294 37.9803 44.0548V35.785ZM17.0829 39.2423H20.8927L21.7955 43.1954H16.1539L17.0829 39.2423ZM20.9667 37.5235H17.0284L16.3678 35.4694L18.9907 34.1605L21.6697 35.4979L20.9667 37.5235ZM18.9903 31.5784L15.9982 26.8011C16.9699 27.0707 17.9796 27.2107 18.9991 27.2107C20.0088 27.2107 21.0111 27.0734 21.9778 26.8082L18.9903 31.5784ZM20.2227 32.854L24.3568 26.2519L26.5865 28.2513L23.7494 34.6144L20.2227 32.854ZM17.277 2.63282H20.7212C25.011 2.63282 28.501 6.10221 28.501 10.3672V11.0775L26.8841 8.75386C26.7378 8.54338 26.5047 8.4091 26.2488 8.38762C25.9925 8.36613 25.7409 8.45979 25.5613 8.64308C23.8109 10.4296 21.7844 11.2266 18.9907 11.2266C16.1973 11.2266 14.1704 10.4296 12.4187 8.64308C12.2384 8.45879 11.9845 8.36546 11.7279 8.38795C11.4709 8.41045 11.2375 8.54674 11.0922 8.75957L9.55773 11.0037V10.3672C9.55773 6.10221 13.0205 2.63282 17.277 2.63282ZM9.55773 16.0391V14.0528L11.9492 10.5552C13.865 12.1816 16.129 12.9453 18.9907 12.9453C21.8554 12.9453 24.121 12.18 26.0372 10.5502L28.501 14.0911V16.0391C28.501 21.1856 24.2862 25.4922 18.9991 25.4922C13.7291 25.4922 9.55773 21.199 9.55773 16.0391ZM13.6235 26.2522L17.7583 32.854L14.231 34.6144L11.3939 28.2513L13.6235 26.2522ZM1.72211 35.785C1.72211 32.2447 6.03412 29.1879 9.80226 28.9099L13.0238 36.1344C13.1193 36.3486 13.2986 36.5148 13.5199 36.594C13.7413 36.6732 13.9851 36.6584 14.1957 36.5537L14.8092 36.2472L15.5078 38.4185L14.385 43.1954H1.72211V35.785ZM36.2582 43.1954H23.5617L22.4739 38.4316L23.223 36.273L23.7847 36.5537C23.9966 36.6594 24.2411 36.6725 24.4604 36.594C24.6817 36.5148 24.861 36.3486 24.9565 36.1344L28.1781 28.9099C31.9462 29.1882 36.2582 32.2447 36.2582 35.785V43.1954Z" fill="#2657D8"/>
<path d="M30.1845 39.2423H26.7403C26.2647 39.2423 25.8792 39.627 25.8792 40.1017C25.8792 40.5764 26.2647 40.9611 26.7403 40.9611H30.1845C30.6601 40.9611 31.0456 40.5764 31.0456 40.1017C31.0456 39.627 30.6601 39.2423 30.1845 39.2423Z" fill="#2657D8"/>
<path d="M33.5813 39.2423C34.0566 39.2423 34.4424 39.6274 34.4424 40.1017C34.4424 40.576 34.0566 40.9611 33.5813 40.9611C33.1061 40.9611 32.7203 40.576 32.7203 40.1017C32.7203 39.6274 33.1061 39.2423 33.5813 39.2423Z" fill="#2657D8"/>
<mask id="mask0" mask-type="alpha" maskUnits="userSpaceOnUse" x="21" y="14" width="38" height="31">
<path d="M50.5984 34.4828L48.323 43.0205L48.0241 44.1563C47.947 44.5413 47.4939 44.7627 47.1178 44.6857L43.3386 43.6943C42.953 43.6172 42.7311 43.1649 42.8084 42.7895L43.1072 41.6537L43.4929 40.4408L24.7987 35.4548V34.0208C24.7987 33.4143 24.7216 32.7405 24.577 32.1341C25.57 32.0571 26.4667 31.3833 26.7655 30.315C27.1511 29.0347 26.3124 27.6776 25.0204 27.2926C24.1912 27.1482 23.3524 27.3696 22.745 27.899L21 24.2703C21.0771 24.1933 21.1446 24.0489 21.2217 23.9719L28.6358 15.3572C29.3203 14.5294 30.4579 14.077 31.5184 14C31.904 14 32.203 14 32.5114 14.077L45.7583 17.4748C47.1177 17.8598 48.3325 19.2169 48.5543 20.4971L50.6657 31.6818C50.9069 32.8176 50.8394 33.5876 50.5984 34.4828ZM47.3493 30.5653L45.9128 22.865C45.6139 21.3634 45.0837 20.9014 43.7244 20.5164L33.2058 17.6384C32.6755 17.494 32.2996 17.494 31.9235 17.494C31.3161 17.571 30.7859 17.9464 30.1785 18.6298L25.0301 24.5879L47.3493 30.5653ZM45.9128 32.9812C45.7682 32.9042 45.6139 32.9042 45.4598 32.9042C45.3054 32.9042 45.1608 32.9042 45.0066 32.9042C44.0136 32.9812 43.1845 33.655 42.9627 34.7234C42.5771 36.0036 43.3484 37.3607 44.6306 37.7457C45.9129 38.1307 47.2723 37.2934 47.6579 36.0035C48.0242 34.7042 47.2047 33.347 45.9128 32.9812Z" fill="black"/>
<path d="M50.5984 34.4828L48.323 43.0205L48.0241 44.1563C47.947 44.5413 47.4939 44.7627 47.1178 44.6857L43.3386 43.6943C42.953 43.6172 42.7311 43.1649 42.8084 42.7895L43.1072 41.6537L43.4929 40.4408L24.7987 35.4548V34.0208C24.7987 33.4143 24.7216 32.7405 24.577 32.1341C25.57 32.0571 26.4667 31.3833 26.7655 30.315C27.1511 29.0347 26.3124 27.6776 25.0204 27.2926C24.1912 27.1482 23.3524 27.3696 22.745 27.899L21 24.2703C21.0771 24.1933 21.1446 24.0489 21.2217 23.9719L28.6358 15.3572C29.3203 14.5294 30.4579 14.077 31.5184 14C31.904 14 32.203 14 32.5114 14.077L45.7583 17.4748C47.1177 17.8598 48.3325 19.2169 48.5543 20.4971L50.6657 31.6818C50.9069 32.8176 50.8394 33.5876 50.5984 34.4828ZM47.3493 30.5653L45.9128 22.865C45.6139 21.3634 45.0837 20.9014 43.7244 20.5164L33.2058 17.6384C32.6755 17.494 32.2996 17.494 31.9235 17.494C31.3161 17.571 30.7859 17.9464 30.1785 18.6298L25.0301 24.5879L47.3493 30.5653ZM45.9128 32.9812C45.7682 32.9042 45.6139 32.9042 45.4598 32.9042C45.3054 32.9042 45.1608 32.9042 45.0066 32.9042C44.0136 32.9812 43.1845 33.655 42.9627 34.7234C42.5771 36.0036 43.3484 37.3607 44.6306 37.7457C45.9129 38.1307 47.2723 37.2934 47.6579 36.0035C48.0242 34.7042 47.2047 33.347 45.9128 32.9812Z" fill="black"/>
<path d="M57.0952 30.0003L49.1424 29.2888L57.0582 27.9595C57.4249 27.8191 57.7768 27.9616 57.8953 28.1491C57.9365 28.2143 57.9074 28.3125 57.9328 28.4789L58.0426 29.4815C58.0422 29.9494 57.6918 30.0796 57.0952 30.0003ZM47.708 28.1538L57.442 23.6115C58.1539 23.3327 58.483 22.8625 58.1998 22.4142L57.8341 21.8355C57.7569 21.7132 57.3913 21.1345 57.3913 21.1345C57.108 20.6863 56.6071 20.7404 55.9846 21.3049L47.708 28.1538ZM46.7601 26.7797L51.3594 20.2015C51.6076 19.8736 51.666 19.5516 51.5476 19.3641C51.5064 19.2989 51.4703 19.2419 51.4291 19.1767C51.3879 19.1115 51.3228 19.1526 51.2868 19.0955L50.8576 18.8307L50.3993 18.6641C50.0062 18.4563 49.7271 18.7353 49.5454 19.2948L46.7601 26.7797Z" fill="black"/>
</mask>
<g mask="url(#mask0)">
<path d="M24 25.5C27.2 24.7 28.6667 19.1667 29 16.5L30 13.5C33.3333 12.6667 40.1 11 40.5 11C40.9 11 55.3333 14.6667 62.5 16.5L65 30L55.5 46L37 44.5C36.8333 41.8333 36.4 35.7 36 32.5C35.6 29.3 30.1667 28.8333 27.5 29L24 25.5Z" fill="#2657D8"/>
</g>
</svg>
