<svg width="60" height="45" viewBox="0 0 60 45" fill="none" xmlns="http://www.w3.org/2000/svg">
<mask id="mask0" mask-type="alpha" maskUnits="userSpaceOnUse" x="16" y="6" width="44" height="39">
<path d="M21.9828 44.016C21.9828 44.016 21.9437 45 22.9045 45C24.0998 45 33.9957 44.987 33.9957 44.987L34.012 35.8951C34.012 35.8951 33.8557 34.3964 35.3098 34.3964H39.9118C41.6314 34.3964 41.5255 35.8951 41.5255 35.8951L41.506 44.9576C41.506 44.9576 50.889 44.9576 52.3627 44.9576C53.5824 44.9576 53.527 43.7326 53.527 43.7326V26.9711L38.2264 13.3553L21.9828 26.9711V44.016Z" fill="#030104"/>
<path d="M16 25.7036C16 25.7036 17.3793 28.2466 20.387 25.7036L38.3615 10.4914L55.2141 25.6091C58.6956 28.1212 60 25.6091 60 25.6091L38.3615 6L16 25.7036Z" fill="#030104"/>
<path d="M54.8053 10.4555H50.4705L50.4884 15.7142L54.8053 19.3779V10.4555Z" fill="#030104"/>
</mask>
<g mask="url(#mask0)">
<path d="M28.5 20C29.7 17.6 29.3333 13 29 11L39 -1L53 3.5L64 23L58.5 47H37C37 43 36.9 34.6 36.5 33C36 31 33 30 32 29C31.2 28.2 28.3333 27.6667 27 27.5C26.6667 27.1667 25.8 26.2 25 25C26.5 24.5 27 23 28.5 20Z" fill="#2657D8"/>
</g>
<path d="M23.2958 16.3829C23.7711 16.3829 24.1569 15.9979 24.1569 15.5236C24.1569 15.0492 23.7711 14.6642 23.2958 14.6642C22.8196 14.6642 22.4348 15.0492 22.4348 15.5236C22.4348 15.9979 22.8196 16.3829 23.2958 16.3829Z" fill="#2657D8"/>
<path d="M14.6852 16.3829C15.1605 16.3829 15.5463 15.9979 15.5463 15.5236C15.5463 15.0492 15.1605 14.6642 14.6852 14.6642C14.209 14.6642 13.8242 15.0492 13.8242 15.5236C13.8242 15.9979 14.209 16.3829 14.6852 16.3829Z" fill="#2657D8"/>
<path d="M16.6885 22.2897C17.4113 22.6298 18.1859 22.8023 18.9901 22.8023C19.7769 22.8023 20.5363 22.6368 21.2477 22.3105C21.6799 22.1121 21.869 21.6019 21.6705 21.1705C21.4717 20.7395 20.9605 20.5505 20.5283 20.7489C20.0443 20.9708 19.5266 21.0836 18.9901 21.0836C18.4416 21.0836 17.9142 20.9664 17.4228 20.7351C16.9926 20.5327 16.4793 20.7166 16.2768 21.146C16.074 21.5754 16.2583 22.0873 16.6885 22.2897Z" fill="#2657D8"/>
<path d="M37.9803 35.785C37.9803 31.0594 32.588 27.3533 27.9658 27.1778L25.6077 25.0632C28.4798 22.9718 30.2231 19.6109 30.2231 16.0391V10.3672C30.2231 5.15489 25.9605 0.914062 20.7212 0.914062H17.277C12.0447 0.914062 7.83562 5.13978 7.83562 10.3672V16.0391C7.83562 19.6048 9.55571 22.9594 12.3905 25.0471L10.0145 27.1778C5.40246 27.353 0 31.0497 0 35.785V44.0548C0 44.5294 0.385457 44.9142 0.861057 44.9142H37.1193C37.5949 44.9142 37.9803 44.5294 37.9803 44.0548V35.785ZM17.0829 39.2423H20.8927L21.7955 43.1954H16.1539L17.0829 39.2423ZM20.9667 37.5235H17.0284L16.3678 35.4694L18.9907 34.1605L21.6697 35.4979L20.9667 37.5235ZM18.9903 31.5784L15.9982 26.8011C16.9699 27.0707 17.9796 27.2107 18.9991 27.2107C20.0088 27.2107 21.0111 27.0734 21.9778 26.8082L18.9903 31.5784ZM20.2227 32.854L24.3568 26.2519L26.5865 28.2513L23.7494 34.6144L20.2227 32.854ZM17.277 2.63282H20.7212C25.011 2.63282 28.501 6.10221 28.501 10.3672V11.0775L26.8841 8.75386C26.7378 8.54338 26.5047 8.4091 26.2488 8.38762C25.9925 8.36613 25.7409 8.45979 25.5613 8.64308C23.8109 10.4296 21.7844 11.2266 18.9907 11.2266C16.1973 11.2266 14.1704 10.4296 12.4187 8.64308C12.2384 8.45879 11.9845 8.36546 11.7279 8.38795C11.4709 8.41045 11.2375 8.54674 11.0922 8.75957L9.55773 11.0037V10.3672C9.55773 6.10221 13.0205 2.63282 17.277 2.63282ZM9.55773 16.0391V14.0528L11.9492 10.5552C13.865 12.1816 16.129 12.9453 18.9907 12.9453C21.8554 12.9453 24.121 12.18 26.0372 10.5502L28.501 14.0911V16.0391C28.501 21.1856 24.2862 25.4922 18.9991 25.4922C13.7291 25.4922 9.55773 21.199 9.55773 16.0391ZM13.6235 26.2522L17.7583 32.854L14.231 34.6144L11.3939 28.2513L13.6235 26.2522ZM1.72211 35.785C1.72211 32.2447 6.03412 29.1879 9.80226 28.9099L13.0238 36.1344C13.1193 36.3486 13.2986 36.5148 13.5199 36.594C13.7413 36.6732 13.9851 36.6584 14.1957 36.5537L14.8092 36.2472L15.5078 38.4185L14.385 43.1954H1.72211V35.785ZM36.2582 43.1954H23.5617L22.4739 38.4316L23.223 36.273L23.7847 36.5537C23.9966 36.6594 24.2411 36.6725 24.4604 36.594C24.6817 36.5148 24.861 36.3486 24.9565 36.1344L28.1781 28.9099C31.9462 29.1882 36.2582 32.2447 36.2582 35.785V43.1954Z" fill="#2657D8"/>
<path d="M30.1845 39.2423H26.7403C26.2647 39.2423 25.8792 39.627 25.8792 40.1017C25.8792 40.5764 26.2647 40.9611 26.7403 40.9611H30.1845C30.6601 40.9611 31.0456 40.5764 31.0456 40.1017C31.0456 39.627 30.6601 39.2423 30.1845 39.2423Z" fill="#2657D8"/>
<path d="M33.5813 39.2423C34.0566 39.2423 34.4424 39.6274 34.4424 40.1017C34.4424 40.576 34.0566 40.9611 33.5813 40.9611C33.1061 40.9611 32.7203 40.576 32.7203 40.1017C32.7203 39.6274 33.1061 39.2423 33.5813 39.2423Z" fill="#2657D8"/>
</svg>
