<svg width="57" height="45" viewBox="0 0 57 45" fill="none" xmlns="http://www.w3.org/2000/svg">
<g clip-path="url(#clip0)">
<mask id="mask0" mask-type="alpha" maskUnits="userSpaceOnUse" x="22" y="6" width="31" height="39">
<path d="M52.0417 28.834C51.5949 23.0176 48.8869 19.3727 46.4978 16.1562C44.2856 13.1785 42.375 10.6071 42.375 6.81389C42.375 6.5092 42.2044 6.23072 41.9338 6.0911C41.6624 5.95064 41.3363 5.97364 41.0896 6.15295C37.5016 8.7204 34.5079 13.0476 33.4621 17.1765C32.7361 20.051 32.6401 23.2825 32.6266 25.4167C29.3131 24.709 28.5625 19.7527 28.5546 19.6987C28.5173 19.4416 28.3602 19.2179 28.1317 19.0957C27.9008 18.9751 27.6294 18.9664 27.3953 19.0822C27.2216 19.1663 23.1305 21.245 22.8924 29.5448C22.8758 29.8209 22.875 30.0979 22.875 30.3748C22.875 38.4381 29.4361 44.9988 37.5 44.9988C37.5111 44.9995 37.523 45.0011 37.5325 44.9988C37.5357 44.9988 37.5388 44.9988 37.5428 44.9988C45.5869 44.9757 52.125 38.4239 52.125 30.3748C52.125 29.9693 52.0417 28.834 52.0417 28.834ZM37.5 43.3739C34.8117 43.3739 32.625 41.0445 32.625 38.1811C32.625 38.0835 32.6242 37.9851 32.6313 37.8645C32.6638 36.657 32.8932 35.8326 33.1447 35.2843C33.6161 36.2967 34.4587 37.2274 35.8274 37.2274C36.2765 37.2274 36.6399 36.864 36.6399 36.415C36.6399 35.2582 36.6638 33.9237 36.9518 32.7193C37.2081 31.6513 37.8206 30.5152 38.5966 29.6044C38.9418 30.7866 39.6147 31.7433 40.2717 32.6772C41.2119 34.0133 42.1839 35.3946 42.3545 37.7503C42.3648 37.8899 42.3752 38.0303 42.3752 38.1811C42.375 41.0444 40.1883 43.3739 37.5 43.3739Z" fill="#2657D8"/>
</mask>
<g mask="url(#mask0)">
<path d="M24 25C24 25 28 21.5 29 17.5C30 13.5 37.5 -1 37.5 -1C40.5 -0.666667 46.7 0 47.5 0C48.5 0 60 20 61 21.5C62 23 50.5 46 50 47C49.6 47.8 41.5 48 37.5 48C38 47.5 38.7 45.9 37.5 43.5C36 40.5 39.0448 33.9269 35 31.5C30 28.5 26.3333 26.3333 24 25Z" fill="#2657D8"/>
</g>
</g>
<path d="M23.2958 16.3829C23.7711 16.3829 24.1569 15.9979 24.1569 15.5236C24.1569 15.0492 23.7711 14.6642 23.2958 14.6642C22.8196 14.6642 22.4348 15.0492 22.4348 15.5236C22.4348 15.9979 22.8196 16.3829 23.2958 16.3829Z" fill="#2657D8"/>
<path d="M14.6852 16.3829C15.1605 16.3829 15.5463 15.9979 15.5463 15.5236C15.5463 15.0492 15.1605 14.6642 14.6852 14.6642C14.209 14.6642 13.8242 15.0492 13.8242 15.5236C13.8242 15.9979 14.209 16.3829 14.6852 16.3829Z" fill="#2657D8"/>
<path d="M16.6885 22.2897C17.4113 22.6298 18.1859 22.8023 18.9901 22.8023C19.7769 22.8023 20.5363 22.6368 21.2477 22.3105C21.6799 22.1121 21.869 21.6019 21.6705 21.1705C21.4717 20.7395 20.9605 20.5505 20.5283 20.7489C20.0443 20.9708 19.5266 21.0836 18.9901 21.0836C18.4416 21.0836 17.9142 20.9664 17.4228 20.7351C16.9926 20.5327 16.4793 20.7166 16.2768 21.146C16.074 21.5754 16.2583 22.0873 16.6885 22.2897Z" fill="#2657D8"/>
<path d="M37.9803 35.785C37.9803 31.0594 32.588 27.3533 27.9658 27.1778L25.6077 25.0632C28.4798 22.9718 30.2231 19.6109 30.2231 16.0391V10.3672C30.2231 5.15489 25.9605 0.914062 20.7212 0.914062H17.277C12.0447 0.914062 7.83562 5.13978 7.83562 10.3672V16.0391C7.83562 19.6048 9.55571 22.9594 12.3905 25.0471L10.0145 27.1778C5.40246 27.353 0 31.0497 0 35.785V44.0548C0 44.5294 0.385457 44.9142 0.861057 44.9142H37.1193C37.5949 44.9142 37.9803 44.5294 37.9803 44.0548V35.785ZM17.0829 39.2423H20.8927L21.7955 43.1954H16.1539L17.0829 39.2423ZM20.9667 37.5235H17.0284L16.3678 35.4694L18.9907 34.1605L21.6697 35.4979L20.9667 37.5235ZM18.9903 31.5784L15.9982 26.8011C16.9699 27.0707 17.9796 27.2107 18.9991 27.2107C20.0088 27.2107 21.0111 27.0734 21.9778 26.8082L18.9903 31.5784ZM20.2227 32.854L24.3568 26.2519L26.5865 28.2513L23.7494 34.6144L20.2227 32.854ZM17.277 2.63282H20.7212C25.011 2.63282 28.501 6.10221 28.501 10.3672V11.0775L26.8841 8.75386C26.7378 8.54338 26.5047 8.4091 26.2488 8.38762C25.9925 8.36613 25.7409 8.45979 25.5613 8.64308C23.8109 10.4296 21.7844 11.2266 18.9907 11.2266C16.1973 11.2266 14.1704 10.4296 12.4187 8.64308C12.2384 8.45879 11.9845 8.36546 11.7279 8.38795C11.4709 8.41045 11.2375 8.54674 11.0922 8.75957L9.55773 11.0037V10.3672C9.55773 6.10221 13.0205 2.63282 17.277 2.63282ZM9.55773 16.0391V14.0528L11.9492 10.5552C13.865 12.1816 16.129 12.9453 18.9907 12.9453C21.8554 12.9453 24.121 12.18 26.0372 10.5502L28.501 14.0911V16.0391C28.501 21.1856 24.2862 25.4922 18.9991 25.4922C13.7291 25.4922 9.55773 21.199 9.55773 16.0391ZM13.6235 26.2522L17.7583 32.854L14.231 34.6144L11.3939 28.2513L13.6235 26.2522ZM1.72211 35.785C1.72211 32.2447 6.03412 29.1879 9.80226 28.9099L13.0238 36.1344C13.1193 36.3486 13.2986 36.5148 13.5199 36.594C13.7413 36.6732 13.9851 36.6584 14.1957 36.5537L14.8092 36.2472L15.5078 38.4185L14.385 43.1954H1.72211V35.785ZM36.2582 43.1954H23.5617L22.4739 38.4316L23.223 36.273L23.7847 36.5537C23.9966 36.6594 24.2411 36.6725 24.4604 36.594C24.6817 36.5148 24.861 36.3486 24.9565 36.1344L28.1781 28.9099C31.9462 29.1882 36.2582 32.2447 36.2582 35.785V43.1954Z" fill="#2657D8"/>
<path d="M30.1845 39.2423H26.7403C26.2647 39.2423 25.8792 39.627 25.8792 40.1017C25.8792 40.5764 26.2647 40.9611 26.7403 40.9611H30.1845C30.6601 40.9611 31.0456 40.5764 31.0456 40.1017C31.0456 39.627 30.6601 39.2423 30.1845 39.2423Z" fill="#2657D8"/>
<path d="M33.5813 39.2423C34.0566 39.2423 34.4424 39.6274 34.4424 40.1017C34.4424 40.576 34.0566 40.9611 33.5813 40.9611C33.1061 40.9611 32.7203 40.576 32.7203 40.1017C32.7203 39.6274 33.1061 39.2423 33.5813 39.2423Z" fill="#2657D8"/>
<defs>
<clipPath id="clip0">
<rect x="18" y="6" width="39" height="39" fill="white"/>
</clipPath>
</defs>
</svg>
