<svg width="60" height="45" viewBox="0 0 60 45" fill="none" xmlns="http://www.w3.org/2000/svg">
<mask id="mask0" mask-type="alpha" maskUnits="userSpaceOnUse" x="19" y="6" width="41" height="39">
<path d="M40.8332 12.0397C40.8682 12.289 40.9749 12.5141 41.1338 12.6966C35.7261 17.2051 33.8529 13.0089 40.8332 12.0397Z" fill="black"/>
<path d="M41.171 12.8649C41.1923 12.8426 41.2095 12.8216 41.2308 12.8C41.2315 12.8007 41.2329 12.8014 41.2336 12.8021C41.2122 12.8243 41.1923 12.8426 41.171 12.8649Z" fill="black"/>
<path d="M42.1114 10.5812C42.1114 10.5488 42.1127 10.519 42.112 10.4858C42.112 10.519 42.1141 10.548 42.1148 10.5805C42.1141 10.5812 42.1127 10.5812 42.1114 10.5812Z" fill="black"/>
<path d="M40.8167 11.8518C40.8167 11.8532 40.8159 11.8545 40.8159 11.8552C40.7829 11.8545 40.7526 11.8532 40.719 11.8525C40.7534 11.8532 40.7836 11.8518 40.8167 11.8518Z" fill="black"/>
<path d="M42.2819 10.5954C43.1652 3.67474 47.074 5.24673 42.899 10.8353C42.7222 10.7062 42.5117 10.6231 42.2819 10.5954Z" fill="black"/>
<path d="M41.0725 11.1077C40.9391 11.2861 40.8545 11.4984 40.829 11.7302C33.7841 10.9684 35.3718 7.02828 41.0725 11.1077Z" fill="black"/>
<path d="M41.0815 10.93C41.109 10.955 41.1351 10.9759 41.1626 11.0003C41.162 11.0016 41.1612 11.0023 41.1599 11.0037C41.1331 10.9786 41.1097 10.9543 41.0815 10.93Z" fill="black"/>
<path d="M43.0786 12.7392C43.1012 12.7601 43.1212 12.7804 43.1439 12.8021C43.1205 12.7811 43.0992 12.7628 43.0758 12.7419C43.0772 12.7405 43.0779 12.7399 43.0786 12.7392Z" fill="black"/>
<path d="M43.5278 11.8511C43.4941 11.8511 43.4645 11.8538 43.4314 11.8538C43.4314 11.8525 43.4314 11.8511 43.4308 11.8504C43.4645 11.8504 43.4947 11.8518 43.5278 11.8511Z" fill="black"/>
<path d="M43.4177 11.718C43.3874 11.4652 43.2843 11.2367 43.1274 11.0502C48.5242 6.70189 50.3891 10.8915 43.4177 11.718Z" fill="black"/>
<path d="M41.9703 10.5954C41.713 10.6252 41.4812 10.7272 41.292 10.8819C36.8481 5.57792 41.1138 3.74436 41.9703 10.5954Z" fill="black"/>
<path d="M43.1797 12.6189C43.307 12.4472 43.3889 12.2438 43.4163 12.0228C50.4916 12.9034 48.9877 16.7375 43.1797 12.6189Z" fill="black"/>
<path d="M43.0008 10.9178C43.0263 10.89 43.051 10.8664 43.0772 10.8387C43.051 10.8664 43.0297 10.8927 43.0043 10.9204C43.0028 10.9192 43.0015 10.9185 43.0008 10.9178Z" fill="black"/>
<path d="M42.7277 11.9498C42.7133 12.0465 42.6782 12.1323 42.6231 12.2087C42.6094 12.2276 42.5991 12.2485 42.5839 12.2661C42.577 12.2735 42.5736 12.2843 42.5667 12.2911C42.5509 12.3073 42.5296 12.3161 42.5117 12.3303C42.4285 12.3972 42.328 12.4398 42.2172 12.4567C42.189 12.4608 42.1636 12.4729 42.134 12.4729C42.1306 12.4729 42.1278 12.4749 42.1244 12.4749C42.1168 12.4749 42.1113 12.4708 42.1037 12.4708C42.0838 12.4702 42.0666 12.462 42.0473 12.4594C41.9469 12.4465 41.8568 12.4107 41.777 12.3566C41.7571 12.3424 41.7343 12.3323 41.7158 12.316C41.7082 12.3092 41.6978 12.3058 41.6903 12.2991C41.6745 12.2836 41.6655 12.2633 41.6518 12.2464C41.5837 12.1646 41.541 12.0666 41.5231 11.9578C41.5183 11.9295 41.5059 11.9031 41.5059 11.8734C41.5059 11.8707 41.5038 11.868 41.5038 11.8652C41.5038 11.8578 41.5079 11.851 41.5079 11.8436C41.5086 11.8247 41.5169 11.8085 41.5189 11.7903C41.532 11.6889 41.5691 11.599 41.6269 11.5193C41.6386 11.5031 41.6476 11.4849 41.6614 11.47C41.6683 11.4625 41.6717 11.4524 41.6786 11.4449C41.6978 11.4254 41.7219 11.4132 41.7432 11.3956C41.8278 11.3294 41.9283 11.2868 42.0411 11.2713C42.0632 11.2685 42.0824 11.2591 42.1051 11.2584C42.112 11.2584 42.1182 11.2543 42.125 11.2543C42.1285 11.2543 42.1319 11.2564 42.1354 11.2564C42.1615 11.2571 42.1842 11.2672 42.209 11.2712C42.3094 11.2854 42.3988 11.3212 42.478 11.3767C42.4938 11.3875 42.511 11.3962 42.5261 11.4084C42.5336 11.4152 42.5446 11.4186 42.5515 11.4253C42.5722 11.4442 42.5853 11.4685 42.6025 11.4902C42.6699 11.5733 42.7133 11.6727 42.7284 11.7828C42.7312 11.8031 42.7401 11.8214 42.7407 11.843C42.7407 11.8504 42.7449 11.8565 42.7449 11.8639C42.7449 11.8673 42.7428 11.87 42.7428 11.8734C42.7428 11.9011 42.7312 11.9241 42.7277 11.9498Z" fill="black"/>
<path d="M24.3657 19.1786C17.2114 16.1509 22.4307 11.0725 25.4727 18.1013C22.43 11.0725 30.372 11.0725 27.1573 18.1013C30.372 11.0725 35.3724 16.1508 28.2181 19.1786C35.3724 16.1509 35.3724 23.9528 28.2181 20.8338C35.3724 23.9528 30.3719 28.9148 27.1573 21.8861C28.4898 24.7996 27.9044 26.5014 26.9799 26.9995V29.7961C27.3479 29.3028 27.7957 29.1021 28.2484 29.0439C29.0422 28.9411 30.2042 29.5372 31.5504 28.656C31.4225 32.0412 28.4258 33.0131 27.5177 32.4434C27.3065 32.3109 27.1291 32.1819 26.9798 32.0622V34.1864H36.6107V33.589C36.489 33.6228 36.3617 33.6558 36.2104 33.6836C35.3753 33.8356 33.4801 32.2535 34.4074 29.7441C35.0884 30.7275 36.0454 30.693 36.6108 30.9485V29.9361C36.2125 29.44 36.057 28.4661 36.6108 27.0158V26.9691C34.5064 31.396 31.1515 28.0809 35.9744 25.9777C31.0559 28.1221 31.0559 22.758 35.9744 24.8396C31.0559 22.758 34.6441 19.2666 36.7353 24.0989C34.6433 19.2666 40.1033 19.2666 37.8938 24.0989C40.1041 19.2666 43.5416 22.758 38.623 24.8396C39.8784 24.3084 40.812 24.2638 41.4263 24.4543V15.7879C40.1475 19.5328 37.8395 17.7344 41.3616 12.9055C41.3829 12.9203 41.4043 12.9352 41.4263 12.9487C41.5907 13.0515 41.7806 13.1576 41.9835 13.1792C42.0269 13.1846 42.0688 13.2353 42.1129 13.2353C42.1142 13.2353 42.1156 13.2353 42.1163 13.2353C42.1191 13.2353 42.1211 13.1941 42.1239 13.1941C42.1837 13.1941 42.2401 13.163 42.2979 13.1556C42.4808 13.1313 42.6508 13.0617 42.8015 12.9711C42.8607 12.9353 42.9156 12.8893 42.9679 12.8454C46.9599 17.4844 44.2096 19.4646 42.8015 15.3285V34.1865H51.0572V31.2656C50.8846 31.4176 50.6603 31.5893 50.3755 31.7676C49.4674 32.3374 46.4708 31.3656 46.3429 27.9802C47.6892 28.8616 48.8511 28.2654 49.6449 28.3682C50.1588 28.4344 50.6658 28.6872 51.0572 29.342V26.8907C50.2214 26.2818 49.744 24.6171 50.9259 21.8861C47.8832 28.9148 42.6646 23.9528 49.819 20.8338C42.6646 23.9535 42.6646 16.1509 49.819 19.1786C42.6646 16.1509 47.8839 11.0725 50.9259 18.1013C47.8832 11.0725 55.8252 11.0725 52.6105 18.1013C55.8252 11.0725 60.8256 16.1508 53.6713 19.1786C60.8256 16.1509 60.8256 23.9528 53.6713 20.8338C60.8256 23.9528 55.8251 28.9148 52.6105 21.8861C53.943 24.7996 53.3576 26.5014 52.4331 26.9995V28.5398C52.6223 28.4492 52.8169 28.3931 53.0137 28.3681C53.8075 28.2653 54.9694 28.8614 56.3157 27.9802C56.194 31.2012 53.4787 32.234 52.4331 31.8358V34.1865H58.6242C59.3843 34.1865 60 34.7913 60 35.5382V43.6483C60 44.3951 59.3843 45 58.6242 45H22.8523C22.0922 45 21.4765 44.3951 21.4765 43.6483V35.5382C21.4765 34.7914 22.0922 34.1865 22.8523 34.1865H25.604V26.8907C24.7682 26.2818 24.2908 24.6171 25.4727 21.8861C22.43 28.9148 17.2114 23.9528 24.3657 20.8338C17.2114 23.9528 17.2114 16.1509 24.3657 19.1786ZM52.7197 19.9755C52.7197 19.4524 52.2877 19.0279 51.7552 19.0279C51.2228 19.0279 50.7908 19.4523 50.7908 19.9755C50.7908 20.4986 51.2228 20.923 51.7552 20.923C52.2877 20.923 52.7197 20.4992 52.7197 19.9755ZM36.7312 25.3822C36.7312 25.6958 36.9898 25.95 37.309 25.95C37.6282 25.95 37.8868 25.6958 37.8868 25.3822C37.8868 25.0686 37.6281 24.8145 37.309 24.8145C36.9898 24.8145 36.7312 25.0693 36.7312 25.3822ZM41.4261 26.3994C40.8118 26.5818 39.8783 26.5251 38.6229 25.9776C43.4734 28.0924 40.1976 31.4337 37.9865 26.8907V26.9211C38.6758 28.5567 38.4625 29.6029 37.9865 30.0584V34.1865H41.4261V26.3994H41.4261ZM24.9161 35.5382C24.1559 35.5382 23.5402 36.1431 23.5402 36.8899C23.5402 37.6366 24.1559 38.2415 24.9161 38.2415H56.5604C57.3205 38.2415 57.9363 37.6366 57.9363 36.8899C57.9363 36.1431 57.3205 35.5382 56.5604 35.5382H52.4329V37.5657H51.0571V35.5382H42.802V37.5657H41.4262V35.5382H37.9866V37.5657H36.6107V35.5382H26.9799V37.5657H25.604V35.5382H24.9161ZM26.3015 20.9237C26.834 20.9237 27.266 20.4992 27.266 19.9761C27.266 19.4529 26.834 19.0285 26.3015 19.0285C25.7691 19.0285 25.3371 19.4529 25.3371 19.9761C25.3371 20.4992 25.7691 20.9237 26.3015 20.9237Z" fill="black"/>
</mask>
<g mask="url(#mask0)">
<path d="M29.5 15C30.3 11 28.5 6.66667 27.5 5L41.5 3.5L62.5 15V46.5H37V44V35C37 32.5 35 31.5 33 30C31.4 28.8 28.6667 27.8333 27.5 27.5C27.1667 27.3333 26 26.6 24 25C28 24 28.5 20 29.5 15Z" fill="#2657D8"/>
</g>
<path d="M23.2958 16.3829C23.7711 16.3829 24.1569 15.9979 24.1569 15.5236C24.1569 15.0492 23.7711 14.6642 23.2958 14.6642C22.8196 14.6642 22.4348 15.0492 22.4348 15.5236C22.4348 15.9979 22.8196 16.3829 23.2958 16.3829Z" fill="#2657D8"/>
<path d="M14.6852 16.3829C15.1605 16.3829 15.5463 15.9979 15.5463 15.5236C15.5463 15.0492 15.1605 14.6642 14.6852 14.6642C14.209 14.6642 13.8242 15.0492 13.8242 15.5236C13.8242 15.9979 14.209 16.3829 14.6852 16.3829Z" fill="#2657D8"/>
<path d="M16.6885 22.2897C17.4113 22.6298 18.1859 22.8023 18.9901 22.8023C19.7769 22.8023 20.5363 22.6368 21.2477 22.3105C21.6799 22.1121 21.869 21.6019 21.6705 21.1705C21.4717 20.7395 20.9605 20.5505 20.5283 20.7489C20.0443 20.9708 19.5266 21.0836 18.9901 21.0836C18.4416 21.0836 17.9142 20.9664 17.4228 20.7351C16.9926 20.5327 16.4793 20.7166 16.2768 21.146C16.074 21.5754 16.2583 22.0873 16.6885 22.2897Z" fill="#2657D8"/>
<path d="M37.9803 35.785C37.9803 31.0594 32.588 27.3533 27.9658 27.1778L25.6077 25.0632C28.4798 22.9718 30.2231 19.6109 30.2231 16.0391V10.3672C30.2231 5.15489 25.9605 0.914062 20.7212 0.914062H17.277C12.0447 0.914062 7.83562 5.13978 7.83562 10.3672V16.0391C7.83562 19.6048 9.55571 22.9594 12.3905 25.0471L10.0145 27.1778C5.40246 27.353 0 31.0497 0 35.785V44.0548C0 44.5294 0.385457 44.9142 0.861057 44.9142H37.1193C37.5949 44.9142 37.9803 44.5294 37.9803 44.0548V35.785ZM17.0829 39.2423H20.8927L21.7955 43.1954H16.1539L17.0829 39.2423ZM20.9667 37.5235H17.0284L16.3678 35.4694L18.9907 34.1605L21.6697 35.4979L20.9667 37.5235ZM18.9903 31.5784L15.9982 26.8011C16.9699 27.0707 17.9796 27.2107 18.9991 27.2107C20.0088 27.2107 21.0111 27.0734 21.9778 26.8082L18.9903 31.5784ZM20.2227 32.854L24.3568 26.2519L26.5865 28.2513L23.7494 34.6144L20.2227 32.854ZM17.277 2.63282H20.7212C25.011 2.63282 28.501 6.10221 28.501 10.3672V11.0775L26.8841 8.75386C26.7378 8.54338 26.5047 8.4091 26.2488 8.38762C25.9925 8.36613 25.7409 8.45979 25.5613 8.64308C23.8109 10.4296 21.7844 11.2266 18.9907 11.2266C16.1973 11.2266 14.1704 10.4296 12.4187 8.64308C12.2384 8.45879 11.9845 8.36546 11.7279 8.38795C11.4709 8.41045 11.2375 8.54674 11.0922 8.75957L9.55773 11.0037V10.3672C9.55773 6.10221 13.0205 2.63282 17.277 2.63282ZM9.55773 16.0391V14.0528L11.9492 10.5552C13.865 12.1816 16.129 12.9453 18.9907 12.9453C21.8554 12.9453 24.121 12.18 26.0372 10.5502L28.501 14.0911V16.0391C28.501 21.1856 24.2862 25.4922 18.9991 25.4922C13.7291 25.4922 9.55773 21.199 9.55773 16.0391ZM13.6235 26.2522L17.7583 32.854L14.231 34.6144L11.3939 28.2513L13.6235 26.2522ZM1.72211 35.785C1.72211 32.2447 6.03412 29.1879 9.80226 28.9099L13.0238 36.1344C13.1193 36.3486 13.2986 36.5148 13.5199 36.594C13.7413 36.6732 13.9851 36.6584 14.1957 36.5537L14.8092 36.2472L15.5078 38.4185L14.385 43.1954H1.72211V35.785ZM36.2582 43.1954H23.5617L22.4739 38.4316L23.223 36.273L23.7847 36.5537C23.9966 36.6594 24.2411 36.6725 24.4604 36.594C24.6817 36.5148 24.861 36.3486 24.9565 36.1344L28.1781 28.9099C31.9462 29.1882 36.2582 32.2447 36.2582 35.785V43.1954Z" fill="#2657D8"/>
<path d="M30.1845 39.2423H26.7403C26.2647 39.2423 25.8792 39.627 25.8792 40.1017C25.8792 40.5764 26.2647 40.9611 26.7403 40.9611H30.1845C30.6601 40.9611 31.0456 40.5764 31.0456 40.1017C31.0456 39.627 30.6601 39.2423 30.1845 39.2423Z" fill="#2657D8"/>
<path d="M33.5813 39.2423C34.0566 39.2423 34.4424 39.6274 34.4424 40.1017C34.4424 40.576 34.0566 40.9611 33.5813 40.9611C33.1061 40.9611 32.7203 40.576 32.7203 40.1017C32.7203 39.6274 33.1061 39.2423 33.5813 39.2423Z" fill="#2657D8"/>
</svg>
