<svg width="41" height="41" viewBox="0 0 41 41" fill="none" xmlns="http://www.w3.org/2000/svg">
<circle cx="20.5" cy="20.5001" r="13.6598" stroke="#EEEEEE"/>
<circle cx="20.5" cy="20.5" r="20" stroke="#F0F0F0"/>
<path d="M19.3419 18.1581H21.9794V27.2542H19.3419V18.1581ZM20.6606 16.8901C20.176 16.8901 19.7815 16.7492 19.4771 16.4674C19.1728 16.1856 19.0206 15.8362 19.0206 15.4192C19.0206 15.0021 19.1728 14.6527 19.4771 14.3709C19.7815 14.0891 20.176 13.9482 20.6606 13.9482C21.1453 13.9482 21.5398 14.0835 21.8441 14.354C22.1485 14.6245 22.3006 14.9627 22.3006 15.3684C22.3006 15.808 22.1485 16.1744 21.8441 16.4674C21.5398 16.7492 21.1453 16.8901 20.6606 16.8901Z" fill="#CFCFCF"/>
</svg>
